<!DOCTYPE svg PUBLIC "-//W3C//DTD SVG 20010904//EN" "http://www.w3.org/TR/2001/REC-SVG-20010904/DTD/svg10.dtd">
<svg version="1.0" xmlns="http://www.w3.org/2000/svg" width="1024px" height="400px" viewBox="0 0 10240 4000" preserveAspectRatio="xMidYMid meet">
<g id="layer101" fill="#3e4f59" stroke="none">
<path d="M0 2000 l0 -2000 5120 0 5120 0 0 2000 0 2000 -5120 0 -5120 0 0 -2000z"/>
</g>
<g id="layer102" fill="#637a87" stroke="none">
<path d="M0 2000 l0 -2000 5120 0 5120 0 0 2000 0 2000 -5120 0 -5120 0 0 -2000z m6090 -1550 c0 -7 -380 -10 -1120 -10 -740 0 -1120 3 -1120 10 0 7 380 10 1120 10 740 0 1120 -3 1120 -10z m-1205 -85 c31 -15 60 -57 48 -69 -3 -3 -18 8 -33 24 -33 35 -76 40 -111 11 -21 -16 -24 -28 -24 -81 0 -53 3 -65 24 -81 33 -27 77 -24 105 6 26 28 36 31 36 11 0 -25 -50 -56 -90 -56 -49 0 -87 30 -100 81 -19 69 18 148 75 162 33 8 36 8 70 -8z m-980 -115 c0 -82 -3 -114 -12 -117 -10 -4 -13 24 -13 117 0 93 3 121 13 118 9 -4 12 -36 12 -118z m173 108 c16 -16 15 -55 0 -65 -7 -4 -29 -13 -48 -18 -45 -14 -50 -48 -6 -53 16 -2 33 1 39 7 20 20 30 11 12 -9 -23 -26 -59 -26 -85 0 -28 28 -12 56 40 71 42 13 57 34 39 55 -17 20 -57 17 -71 -6 -13 -21 -28 -27 -28 -11 0 34 81 56 108 29z m127 3 l-40 -6 -3 -72 c-2 -40 -7 -73 -12 -73 -11 0 -14 143 -3 153 3 4 27 6 52 6 l46 -2 -40 -6z m95 -16 c8 -21 16 -25 48 -25 32 0 41 5 51 26 6 15 14 24 17 22 8 -9 -53 -153 -66 -153 -10 0 -70 124 -70 146 0 17 11 9 20 -16z m264 9 c31 -30 17 -58 -39 -77 -28 -10 -41 -21 -43 -35 -3 -19 1 -22 30 -22 19 0 40 6 47 13 11 10 13 9 9 -3 -3 -8 -17 -19 -32 -25 -29 -10 -52 -1 -70 28 -13 21 10 46 56 61 51 17 48 65 -4 66 -10 0 -27 -9 -38 -20 -13 -13 -20 -15 -20 -7 0 36 74 51 104 21z m494 -32 c27 2 40 9 47 26 5 12 14 22 18 22 5 0 7 -3 5 -8 -1 -4 -16 -40 -31 -80 -16 -39 -33 -72 -38 -72 -11 0 -55 95 -64 137 l-6 28 16 -28 c14 -24 22 -28 53 -25z m131 -65 c5 -4 26 19 47 52 21 34 43 59 49 58 6 -2 8 -35 6 -78 -4 -89 -11 -105 -11 -26 0 32 -4 57 -10 57 -5 0 -25 -25 -45 -55 -19 -30 -39 -55 -45 -55 -6 0 -9 32 -8 83 1 65 2 71 5 27 2 -30 8 -59 12 -63z m171 87 c9 -22 15 -25 47 -22 28 2 41 9 48 26 20 46 24 20 4 -30 -11 -29 -25 -65 -31 -80 -5 -16 -15 -28 -22 -28 -10 0 -67 131 -66 153 0 15 11 6 20 -19z m180 -15 c0 -24 4 -29 25 -29 17 0 32 10 47 35 31 47 46 45 18 -2 -20 -33 -20 -38 -6 -49 23 -16 20 -61 -4 -74 -12 -6 -38 -10 -58 -8 l-37 3 -3 83 c-2 56 1 82 8 77 5 -3 10 -19 10 -36z m180 -39 c0 -47 -4 -80 -10 -80 -6 0 -10 33 -10 80 0 47 4 80 10 80 6 0 10 -33 10 -80z m119 30 c31 0 40 5 50 26 6 15 14 25 16 22 9 -9 -58 -159 -68 -155 -6 2 -24 34 -39 72 -30 73 -37 108 -12 63 12 -23 21 -28 53 -28z m215 34 c9 -8 16 -21 16 -28 0 -17 -29 -42 -60 -51 -35 -10 -50 -24 -43 -41 6 -17 70 -19 76 -1 2 6 8 8 13 4 12 -12 -24 -37 -52 -37 -30 0 -56 27 -52 54 2 14 17 26 48 37 48 18 58 32 40 54 -17 21 -46 19 -71 -6 -26 -26 -34 -20 -13 9 18 26 75 30 98 6z"/>
<path d="M4325 278 c15 -47 45 -49 45 -2 0 19 -5 24 -26 24 -22 0 -24 -3 -19 -22z"/>
<path d="M5030 287 c0 -7 7 -22 15 -33 13 -16 16 -17 25 -4 18 28 12 50 -15 50 -14 0 -25 -6 -25 -13z"/>
<path d="M5380 287 c0 -7 7 -22 15 -33 13 -16 16 -17 25 -4 18 28 12 50 -15 50 -14 0 -25 -6 -25 -13z"/>
<path d="M5540 250 c0 -28 2 -30 39 -30 27 0 41 5 45 16 10 25 -12 44 -50 44 -31 0 -34 -3 -34 -30z"/>
<path d="M5815 278 c11 -35 24 -45 35 -28 18 29 12 50 -16 50 -22 0 -24 -3 -19 -22z"/>
</g>
<g id="layer103" fill="#99966b" stroke="none">
<path d="M0 2000 l0 -2000 5120 0 5120 0 0 2000 0 2000 -5120 0 -5120 0 0 -2000z m870 1811 c-14 -4 -25 -13 -25 -21 0 -8 11 -17 25 -21 25 -7 25 -7 2 -8 -30 -1 -24 -23 9 -33 22 -6 21 -7 -6 -5 -25 2 -30 7 -37 37 -10 47 -4 60 29 59 l28 -1 -25 -7z m313 -2 c-12 -12 -6 -39 11 -51 7 -5 5 -8 -5 -8 -9 0 -19 10 -23 23 -9 36 -7 47 11 47 13 0 14 -3 6 -11z m212 -3 c-22 -16 -13 -49 12 -44 12 3 17 12 16 28 -2 21 -1 22 7 8 14 -23 1 -50 -23 -46 -40 6 -50 68 -10 68 15 0 15 -1 -2 -14z m-325 -36 c14 0 20 7 20 21 0 33 17 12 22 -26 4 -36 -5 -47 -16 -20 -8 21 -46 19 -47 -2 -1 -28 -18 16 -18 47 0 25 0 25 9 3 6 -13 18 -23 30 -23z m190 30 c5 8 10 11 10 5 0 -5 3 -21 7 -33 5 -21 3 -23 -18 -20 -18 2 -25 10 -27 33 -2 23 0 27 8 15 9 -13 11 -13 20 0z m75 0 c7 6 12 0 13 -21 2 -23 -2 -29 -17 -29 -19 0 -31 18 -31 48 0 12 3 13 12 4 7 -7 16 -8 23 -2z m-123 -880 c-20 -8 -22 -14 -17 -52 4 -30 3 -38 -3 -28 -9 13 -16 61 -13 83 1 4 13 7 29 6 26 0 26 -1 4 -9z m237 -9 c10 -18 6 -31 -10 -31 -5 0 -6 7 -3 15 8 20 -22 31 -41 15 -10 -8 -13 -21 -9 -34 9 -28 24 -37 52 -31 15 4 21 2 17 -5 -19 -31 -85 7 -85 50 0 39 61 55 79 21z m-154 -21 c-5 -17 -10 -19 -21 -9 -19 15 -18 27 4 31 23 6 25 3 17 -22z m309 24 c9 -3 16 -16 16 -28 -1 -19 -2 -19 -11 -3 -5 9 -14 17 -19 17 -5 0 -11 -8 -13 -17 -3 -11 -5 -7 -6 10 -1 28 5 32 33 21z m3497 -324 c24 -13 25 -40 2 -40 -14 0 -15 2 -5 9 10 6 10 10 -1 20 -20 16 -47 3 -47 -24 0 -29 24 -49 50 -42 11 3 20 1 20 -4 0 -14 -56 -11 -67 4 -19 24 -21 45 -7 66 17 24 27 26 55 11z m365 -6 c18 -14 18 -15 -4 -4 -12 6 -27 8 -32 5 -17 -10 -11 -63 8 -74 9 -6 12 -11 7 -11 -45 -1 -48 93 -4 99 3 1 14 -6 25 -15z m139 -30 c-23 -23 -30 -10 -8 15 10 12 19 17 21 11 2 -5 -4 -17 -13 -26z m-351 3 c-4 -13 -9 -14 -19 -4 -11 10 -10 13 4 18 20 8 23 6 15 -14z m290 -1 c-5 -13 -9 -14 -21 -4 -13 10 -13 13 4 19 23 8 25 6 17 -15z m140 0 c-5 -13 -9 -14 -21 -4 -13 10 -13 13 4 19 23 8 25 6 17 -15z m170 0 c-5 -14 -9 -15 -15 -5 -5 8 -3 17 4 21 15 9 19 4 11 -16z m-667 -11 c1 -16 1 -16 -3 -2 -3 9 -10 15 -15 11 -5 -3 -7 -10 -4 -15 4 -5 1 -9 -4 -9 -6 0 -11 9 -11 21 0 27 34 22 37 -6z m115 -7 c-9 -9 -12 -7 -12 12 0 19 3 21 12 12 9 -9 9 -15 0 -24z m457 18 c8 -10 9 -16 1 -21 -5 -3 -10 1 -10 9 0 22 -17 20 -23 -1 -4 -14 -5 -12 -6 5 -1 25 20 30 38 8z m1710 -466 c14 -1 14 -2 -1 -13 -19 -15 -12 -32 17 -40 16 -4 14 -5 -7 -6 -32 -1 -36 3 -43 60 -5 38 -4 41 6 22 7 -13 19 -23 28 -23z m63 15 c-2 -14 -6 -25 -8 -25 -2 0 -4 11 -4 25 0 14 4 25 9 25 4 0 6 -11 3 -25z m72 10 c-4 -8 -2 -15 3 -15 5 0 9 -9 9 -21 0 -19 -1 -19 -13 -3 -15 21 -17 54 -3 54 5 0 7 -7 4 -15z m205 -17 c0 -28 -2 -30 -9 -13 -12 28 -12 45 0 45 6 0 10 -15 9 -32z m134 12 c3 -11 1 -23 -4 -26 -5 -3 -9 6 -9 20 0 31 6 34 13 6z m-241 -14 c12 -17 9 -33 -3 -16 -8 11 -12 12 -16 2 -6 -15 -23 -6 -23 12 0 16 32 17 42 2z m-4547 -42 c-9 -9 -18 -14 -21 -11 -3 3 3 14 13 24 10 10 19 15 21 11 2 -4 -4 -15 -13 -24z m4604 7 c-15 -5 -22 6 -14 19 6 9 10 9 16 -1 5 -8 4 -15 -2 -18z m-4726 -53 c7 -4 0 -8 -16 -8 -20 0 -26 4 -20 12 4 7 6 26 6 43 -2 29 -2 29 8 -5 6 -19 16 -38 22 -42z m267 55 c-8 -3 -18 -11 -22 -17 -5 -7 -8 -4 -8 7 0 11 7 17 23 16 15 0 17 -2 7 -6z m-3182 -80 c-13 -3 -18 -15 -19 -46 0 -33 -2 -38 -9 -22 -5 11 -9 32 -9 48 -1 23 3 27 27 26 16 -1 20 -3 10 -6z m207 -35 c14 -2 20 -11 20 -28 0 -20 -6 -26 -27 -28 -23 -3 -28 2 -37 35 -16 57 -14 72 7 46 9 -11 26 -23 37 -25z m-125 5 c0 -28 -8 -29 -26 -5 -18 23 -17 28 6 28 14 0 20 -7 20 -23z m205 -3 c-6 -20 -7 -21 -20 -3 -12 15 -11 19 3 24 22 8 25 5 17 -21z m145 11 c15 -29 12 -39 -6 -16 -15 20 -15 20 -30 1 -14 -20 -14 -20 -14 0 0 38 32 47 50 15z m62 -3 c-9 -9 -15 -9 -24 0 -9 9 -7 12 12 12 19 0 21 -3 12 -12z m7945 -1125 c-14 -4 -18 -13 -17 -41 3 -52 -1 -62 -10 -27 -16 61 -12 75 18 74 18 -1 21 -3 9 -6z m163 -18 c0 -8 -7 -15 -15 -15 -8 0 -15 -4 -15 -10 0 -5 -4 -10 -10 -10 -5 0 -10 7 -10 15 0 8 7 15 15 15 8 0 15 5 15 10 0 6 5 10 10 10 6 0 10 -7 10 -15z m-80 -15 c0 -11 -3 -20 -8 -20 -4 0 -13 9 -20 20 -11 18 -10 20 8 20 13 0 20 -7 20 -20z m200 -2 c0 -17 -2 -18 -15 -4 -8 8 -15 16 -15 19 0 2 7 4 15 4 8 0 15 -9 15 -19z m80 -13 c0 -5 -5 -3 -10 5 -9 13 -11 13 -20 0 -8 -13 -10 -13 -10 2 0 9 6 18 13 21 12 4 27 -10 27 -28z m78 -287 c7 -7 12 -19 12 -27 0 -14 -2 -14 -9 -2 -8 12 -12 12 -25 2 -14 -12 -16 -11 -16 6 0 33 17 42 38 21z m-2898 -47 c0 -5 -7 -12 -16 -15 -20 -8 -2208 -8 -2228 0 -9 3 -16 10 -16 15 0 5 474 9 1130 9 656 0 1130 -4 1130 -9z m-2195 -199 c0 -166 -19 -162 -23 4 -2 99 0 125 10 122 10 -4 13 -36 13 -126z m175 108 c34 -34 19 -74 -32 -85 -46 -10 -61 -24 -47 -41 15 -19 38 -18 61 3 22 19 37 9 22 -15 -7 -10 -27 -18 -52 -20 -36 -3 -43 0 -53 22 -17 36 -6 52 43 68 31 11 43 20 43 34 0 30 -54 32 -77 2 l-18 -23 0 22 c0 26 35 53 67 53 13 0 32 -9 43 -20z m163 5 c-1 -5 -19 -12 -40 -15 l-38 -5 -3 -72 c-2 -40 -7 -73 -12 -73 -11 0 -14 163 -3 174 11 11 98 3 96 -9z m62 -15 c22 -43 68 -42 90 0 9 17 20 28 24 25 13 -8 -53 -170 -69 -170 -14 0 -82 154 -73 168 7 12 12 8 28 -23z m253 14 c24 -17 29 -56 10 -71 -7 -6 -30 -16 -51 -23 -27 -8 -37 -17 -35 -28 4 -22 51 -27 68 -8 14 18 30 21 30 7 0 -20 -33 -41 -64 -41 -39 0 -59 19 -54 51 3 22 10 28 63 51 40 18 39 42 -2 46 -24 2 -34 -2 -43 -18 -6 -11 -15 -18 -21 -15 -14 9 -11 23 11 45 24 24 57 26 88 4z m351 -10 c30 -25 42 -64 20 -64 -6 0 -24 14 -39 30 -34 36 -60 38 -96 6 -24 -20 -28 -31 -28 -74 0 -66 22 -92 75 -92 28 0 42 6 51 20 7 11 18 20 25 20 45 0 -2 -66 -54 -76 -97 -18 -162 86 -119 190 29 69 108 88 165 40z m151 -34 c23 0 33 6 40 24 10 28 30 43 30 24 0 -21 -62 -168 -71 -168 -11 0 -20 16 -51 93 -30 73 -28 109 3 58 14 -24 26 -31 49 -31z m132 -9 l3 -53 40 58 c22 32 45 57 50 56 14 -3 19 -172 6 -172 -14 0 -24 44 -18 75 8 46 -12 37 -49 -20 -19 -31 -41 -54 -47 -52 -13 4 -22 138 -12 165 10 27 24 -1 27 -57z m172 37 c8 -16 22 -24 44 -26 26 -3 34 1 41 21 11 29 31 45 31 25 0 -27 -63 -169 -74 -165 -15 5 -78 156 -70 169 7 11 13 6 28 -24z m176 -14 c0 -48 29 -45 70 6 38 48 52 44 25 -5 -17 -34 -17 -36 0 -55 23 -26 13 -68 -19 -76 -12 -3 -40 -4 -62 -2 l-39 3 -3 65 c-3 72 4 114 18 105 6 -3 10 -22 10 -41z m180 -44 c0 -53 -4 -90 -10 -90 -11 0 -14 162 -3 173 12 13 13 7 13 -83z m74 58 c8 -15 22 -24 43 -26 27 -3 34 2 49 30 12 22 19 28 21 17 5 -23 -54 -164 -69 -164 -15 0 -81 152 -72 167 7 11 13 6 28 -24z m254 16 c24 -17 29 -56 10 -71 -7 -6 -30 -16 -51 -23 -27 -8 -37 -17 -35 -28 4 -24 46 -27 69 -6 25 23 37 10 14 -16 -31 -35 -115 -17 -115 25 0 16 30 41 60 50 35 10 50 24 43 41 -7 19 -57 18 -73 -1 -16 -19 -30 -19 -30 -1 0 19 38 46 65 46 11 0 31 -7 43 -16z m2877 -21 c5 -14 3 -15 -6 -6 -6 6 -18 9 -25 6 -8 -3 -14 0 -14 6 0 18 37 13 45 -6z"/>
</g>
<g id="layer104" fill="#a78e5e" stroke="none">
<path d="M495 3789 c-22 -10 -57 -19 -77 -19 -50 0 -85 -15 -93 -39 -9 -29 3 -45 21 -30 7 6 21 9 29 5 9 -3 14 -2 11 3 -3 5 1 12 10 15 24 9 46 7 39 -4 -3 -5 -1 -10 4 -10 6 0 11 4 11 9 0 14 71 24 83 12 6 -6 19 -11 28 -11 18 0 43 -55 33 -72 -3 -5 0 -22 6 -39 10 -24 17 -28 36 -23 15 4 24 2 24 -5 0 -16 40 -13 46 3 3 8 -1 30 -10 48 -8 18 -16 42 -18 53 -2 11 -12 21 -23 24 -21 3 -35 18 -35 36 0 6 5 3 10 -5 5 -8 10 -11 10 -7 0 10 -32 60 -45 69 -17 13 -58 7 -100 -13z"/>
<path d="M5505 3510 c-4 -6 -2 -17 4 -24 7 -8 7 -23 1 -47 -13 -43 -13 -44 3 -30 8 6 16 9 19 6 3 -3 13 5 24 17 10 12 13 18 5 13 -10 -6 -12 -2 -6 14 3 11 2 21 -3 21 -5 0 -12 9 -15 20 -6 22 -22 26 -32 10z"/>
<path d="M3350 2749 c0 -6 -9 -8 -21 -4 -35 11 -127 -37 -129 -67 0 -13 28 -9 43 6 7 8 34 20 58 27 49 14 97 49 66 49 -9 0 -17 -5 -17 -11z"/>
<path d="M3419 2753 c-21 -3 -26 -9 -22 -23 6 -22 -34 -44 -77 -41 l-25 1 26 -26 c15 -14 42 -29 60 -33 19 -4 35 -13 36 -21 3 -19 -64 -62 -86 -57 -11 3 -8 5 6 6 12 0 27 10 33 20 12 23 13 42 3 39 -5 -2 -25 8 -46 20 -29 19 -43 22 -65 15 -43 -15 -40 -45 8 -78 44 -30 49 -37 23 -29 -15 5 -15 3 1 -10 12 -10 39 -16 68 -16 38 0 46 -3 42 -15 -4 -8 -1 -15 6 -15 9 0 11 -15 8 -52 -4 -41 -3 -47 4 -28 36 91 28 85 109 85 66 0 74 -2 71 -19 -2 -11 1 -15 8 -11 6 4 17 -1 24 -11 12 -15 15 -16 34 -2 l22 15 -28 23 -27 24 25 7 c14 4 37 7 52 8 15 1 29 5 32 10 3 4 -7 7 -22 5 -43 -6 -92 5 -92 21 0 8 -17 26 -37 41 -21 15 -49 39 -62 52 -13 13 -30 21 -38 18 -12 -5 -14 -1 -9 19 6 23 3 25 -24 25 -32 0 -37 -9 -18 -28 9 -9 8 -12 -4 -12 -25 0 -32 19 -16 38 15 17 32 43 26 41 -2 -1 -15 -4 -29 -6z m96 -153 c4 -19 2 -36 -5 -45 -20 -24 -29 -17 -20 16 5 16 6 37 3 45 -3 8 -1 14 5 14 6 0 13 -14 17 -30z"/>
<path d="M3210 2560 c0 -14 7 -20 23 -20 30 0 40 10 26 27 -18 20 -49 16 -49 -7z"/>
<path d="M3691 2431 c-9 -6 -11 -16 -5 -32 7 -24 7 -24 15 5 10 35 8 38 -10 27z"/>
<path d="M3793 2328 c-2 -19 5 -22 31 -12 23 9 20 21 -7 26 -17 3 -23 0 -24 -14z"/>
<path d="M910 1715 c-7 -9 -11 -18 -8 -20 7 -8 38 5 38 15 0 17 -18 19 -30 5z"/>
<path d="M910 1647 c0 -25 -28 -57 -48 -57 -7 0 -12 5 -12 10 0 6 -8 10 -19 10 -10 0 -24 7 -31 15 -10 12 -16 13 -24 5 -8 -8 -6 -15 8 -25 17 -13 17 -15 2 -30 -28 -29 -19 -38 30 -31 31 4 52 2 62 -6 12 -10 18 -8 36 13 12 14 30 28 40 32 15 6 16 10 6 22 -7 8 -9 15 -4 15 5 0 1 5 -8 11 -10 5 -18 17 -18 24 0 8 -4 15 -10 15 -5 0 -10 -11 -10 -23z"/>
</g>
<g id="layer105" fill="#7593a4" stroke="none">
<path d="M0 2000 l0 -2000 5120 0 5120 0 0 2000 0 2000 -5120 0 -5120 0 0 -2000z m625 1883 c6 -25 30 -117 41 -150 2 -7 12 -13 24 -13 14 0 28 -16 49 -58 16 -32 36 -64 45 -71 22 -18 20 -43 -6 -76 -19 -24 -26 -27 -63 -23 -47 6 -105 43 -105 69 0 20 -76 84 -124 104 -47 20 -116 19 -145 -1 -30 -22 -71 -5 -71 28 0 13 -1 34 -2 48 -3 23 0 24 96 37 95 13 156 34 156 53 0 15 69 80 85 80 8 0 17 -12 20 -27z m245 -72 c-14 -4 -25 -13 -25 -21 0 -8 11 -17 25 -21 25 -7 25 -7 2 -8 -30 -1 -24 -23 9 -33 22 -6 21 -7 -6 -5 -25 2 -30 7 -37 37 -10 47 -4 60 29 59 l28 -1 -25 -7z m313 -2 c-12 -12 -6 -39 11 -51 7 -5 5 -8 -5 -8 -9 0 -19 10 -23 23 -9 36 -7 47 11 47 13 0 14 -3 6 -11z m212 -3 c-22 -16 -13 -49 12 -44 12 3 17 12 16 28 -2 21 -1 22 7 8 14 -23 1 -50 -23 -46 -40 6 -50 68 -10 68 15 0 15 -1 -2 -14z m-325 -36 c14 0 20 7 20 21 0 33 17 12 22 -26 4 -36 -5 -47 -16 -20 -8 21 -46 19 -47 -2 -1 -28 -18 16 -18 47 0 25 0 25 9 3 6 -13 18 -23 30 -23z m190 30 c5 8 10 11 10 5 0 -5 3 -21 7 -33 5 -21 3 -23 -18 -20 -18 2 -25 10 -27 33 -2 23 0 27 8 15 9 -13 11 -13 20 0z m75 0 c7 6 12 0 13 -21 2 -23 -2 -29 -17 -29 -19 0 -31 18 -31 48 0 12 3 13 12 4 7 -7 16 -8 23 -2z m4151 -119 c18 -36 121 -81 249 -108 28 -6 41 -14 43 -28 7 -50 13 -61 40 -77 27 -16 29 -22 29 -78 1 -35 7 -70 16 -83 10 -16 12 -29 5 -47 -7 -17 -6 -36 2 -58 13 -38 1 -65 -53 -115 -28 -27 -29 -32 -24 -87 6 -71 -4 -89 -58 -96 -22 -3 -66 -17 -98 -31 -51 -22 -63 -23 -106 -14 -62 13 -119 6 -146 -18 -16 -15 -33 -19 -85 -16 -36 1 -64 4 -63 6 1 2 -4 31 -11 63 -8 33 -12 65 -9 72 6 16 -62 91 -90 100 -12 4 -34 19 -49 35 -16 15 -40 29 -55 31 -33 4 -43 35 -50 146 -4 56 -1 78 10 90 8 9 27 42 42 72 28 56 62 100 77 100 5 0 34 20 66 45 31 25 62 45 69 45 7 0 16 8 22 18 5 9 22 18 38 19 49 3 97 15 118 30 28 19 57 12 71 -16z m-2231 -531 c3 -5 18 -10 33 -10 15 0 50 -11 77 -25 31 -15 68 -24 96 -25 46 0 47 -1 163 -121 64 -67 114 -124 112 -128 -10 -15 24 -121 58 -179 20 -35 36 -70 36 -77 0 -7 12 -27 26 -44 23 -28 25 -35 17 -73 -15 -69 10 -114 86 -153 61 -32 109 -83 113 -120 2 -23 9 -31 28 -35 45 -9 239 -110 254 -132 14 -19 13 -24 -2 -50 -19 -33 -55 -37 -105 -12 -33 18 -57 19 -204 12 -73 -4 -93 -2 -93 9 0 14 -61 43 -91 43 -25 0 -86 55 -93 85 -6 25 -108 135 -126 135 -5 0 -20 11 -34 25 -19 19 -36 25 -68 25 -24 0 -54 7 -66 16 -37 25 -76 32 -141 25 -46 -6 -68 -4 -94 9 -86 42 -227 50 -279 16 -20 -13 -26 -13 -48 -1 -47 27 -89 45 -107 45 -10 0 -25 5 -33 10 -13 9 -13 11 0 20 8 5 29 10 46 10 17 0 43 10 58 21 26 21 28 21 42 3 14 -19 14 -19 25 0 11 18 12 18 28 -2 12 -16 31 -22 75 -26 61 -6 106 0 106 14 0 5 -7 15 -15 24 -8 8 -15 18 -15 22 0 4 -8 12 -17 19 -14 10 -15 17 -5 41 7 16 26 44 42 61 20 22 30 42 30 64 0 35 41 82 95 109 17 8 38 23 47 35 17 20 18 20 18 -7 0 -29 7 -29 57 -6 18 9 30 5 67 -18 28 -17 46 -36 46 -48 0 -12 5 -16 15 -12 10 3 15 -1 15 -13 0 -23 25 -46 35 -31 3 5 15 10 26 10 16 0 19 -5 14 -20 -4 -14 3 -27 25 -47 17 -15 32 -35 34 -43 7 -38 17 -46 46 -42 38 5 38 12 -2 55 -18 19 -49 57 -68 85 -19 28 -43 51 -53 52 -9 0 -16 3 -15 8 3 9 -50 62 -62 62 -5 0 -17 11 -25 24 -9 13 -25 26 -35 29 -12 3 -20 14 -20 27 0 11 -4 19 -9 16 -5 -4 -31 5 -57 18 -34 17 -52 22 -61 14 -7 -5 -20 -7 -31 -4 -24 8 -78 -19 -85 -43 -2 -10 -17 -21 -36 -24 -26 -6 -35 -15 -56 -63 -14 -31 -25 -61 -25 -67 0 -5 -25 -34 -56 -63 -41 -40 -54 -58 -50 -72 5 -14 -1 -24 -19 -36 -14 -9 -25 -25 -25 -36 0 -11 -6 -20 -14 -20 -8 0 -17 -9 -21 -19 -5 -17 -65 -37 -65 -22 0 3 25 37 56 75 37 45 54 74 51 87 -8 29 13 96 38 123 12 13 33 46 46 73 12 26 47 71 77 99 39 36 55 58 55 76 0 17 7 29 23 37 16 7 25 22 30 48 4 21 11 44 17 51 11 15 33 16 42 2z m-1027 -70 c59 -32 112 -81 112 -106 0 -14 8 -25 20 -29 24 -8 25 -22 5 -62 -11 -21 -35 -41 -78 -62 -35 -17 -70 -40 -80 -51 -12 -14 -29 -20 -58 -20 -22 0 -53 -7 -68 -16 -26 -15 -32 -15 -78 0 -31 10 -54 25 -60 39 -20 40 -31 81 -38 130 -6 44 -4 50 24 76 17 16 31 35 31 43 0 7 20 24 45 38 25 14 45 28 45 32 0 22 130 13 178 -12z m5820 -75 c30 -30 77 -84 106 -120 56 -70 91 -95 135 -95 14 0 50 -9 78 -19 29 -10 54 -17 56 -15 2 2 19 -1 38 -6 19 -6 59 -14 89 -20 90 -15 102 -19 120 -35 9 -8 35 -15 58 -15 42 0 102 -38 102 -65 0 -7 7 -18 16 -25 8 -7 14 -23 13 -34 -3 -27 10 -66 27 -84 8 -7 14 -20 14 -28 0 -8 14 -43 31 -77 25 -50 28 -66 20 -85 -6 -12 -11 -38 -11 -56 0 -19 -7 -50 -15 -69 -19 -46 -11 -69 23 -65 22 2 28 -2 35 -27 5 -16 12 -37 16 -45 7 -16 6 -179 -2 -265 -5 -56 -22 -105 -35 -105 -5 0 -23 -14 -41 -30 -23 -23 -36 -28 -49 -22 -9 5 -36 12 -60 16 -24 3 -51 10 -60 15 -9 5 -41 19 -69 32 -55 25 -60 33 -42 71 8 19 5 35 -20 88 -20 41 -28 72 -25 87 4 16 -2 34 -18 56 -14 17 -44 72 -68 120 -31 65 -54 97 -88 125 -50 41 -66 72 -77 145 -6 38 -17 58 -51 95 -24 25 -45 55 -45 67 -1 11 -2 47 -3 80 -3 88 -18 116 -99 180 -40 30 -83 65 -97 77 -73 62 -232 111 -331 101 -43 -4 -47 -2 -51 22 -4 20 -2 24 11 20 9 -3 44 2 76 11 56 15 208 50 230 53 6 0 34 -24 63 -54z m-6836 -85 c-20 -8 -22 -14 -17 -52 4 -30 3 -38 -3 -28 -9 13 -16 61 -13 83 1 4 13 7 29 6 26 0 26 -1 4 -9z m237 -9 c10 -18 6 -31 -10 -31 -5 0 -6 7 -3 15 8 20 -22 31 -41 15 -10 -8 -13 -21 -9 -34 9 -28 24 -37 52 -31 15 4 21 2 17 -5 -19 -31 -85 7 -85 50 0 39 61 55 79 21z m-154 -21 c-5 -17 -10 -19 -21 -9 -19 15 -18 27 4 31 23 6 25 3 17 -22z m309 24 c9 -3 16 -16 16 -28 -1 -19 -2 -19 -11 -3 -5 9 -14 17 -19 17 -5 0 -11 -8 -13 -17 -3 -11 -5 -7 -6 10 -1 28 5 32 33 21z m4206 -84 c19 -35 -2 -51 -35 -26 -16 12 -17 16 -6 30 18 21 28 20 41 -4z m-709 -240 c24 -13 25 -40 2 -40 -14 0 -15 2 -5 9 10 6 10 10 -1 20 -20 16 -47 3 -47 -24 0 -29 24 -49 50 -42 11 3 20 1 20 -4 0 -14 -56 -11 -67 4 -19 24 -21 45 -7 66 17 24 27 26 55 11z m365 -6 c18 -14 18 -15 -4 -4 -12 6 -27 8 -32 5 -17 -10 -11 -63 8 -74 9 -6 12 -11 7 -11 -45 -1 -48 93 -4 99 3 1 14 -6 25 -15z m139 -30 c-23 -23 -30 -10 -8 15 10 12 19 17 21 11 2 -5 -4 -17 -13 -26z m-351 3 c-4 -13 -9 -14 -19 -4 -11 10 -10 13 4 18 20 8 23 6 15 -14z m290 -1 c-5 -13 -9 -14 -21 -4 -13 10 -13 13 4 19 23 8 25 6 17 -15z m140 0 c-5 -13 -9 -14 -21 -4 -13 10 -13 13 4 19 23 8 25 6 17 -15z m170 0 c-5 -14 -9 -15 -15 -5 -5 8 -3 17 4 21 15 9 19 4 11 -16z m-667 -11 c1 -16 1 -16 -3 -2 -3 9 -10 15 -15 11 -5 -3 -7 -10 -4 -15 4 -5 1 -9 -4 -9 -6 0 -11 9 -11 21 0 27 34 22 37 -6z m115 -7 c-9 -9 -12 -7 -12 12 0 19 3 21 12 12 9 -9 9 -15 0 -24z m457 18 c8 -10 9 -16 1 -21 -5 -3 -10 1 -10 9 0 22 -17 20 -23 -1 -4 -14 -5 -12 -6 5 -1 25 20 30 38 8z m-4838 -388 c12 -24 32 -57 45 -74 13 -17 24 -36 24 -42 0 -6 14 -27 30 -46 55 -62 63 -198 14 -216 -32 -13 -32 -48 1 -60 14 -5 25 -14 25 -19 0 -6 14 -24 30 -41 17 -17 30 -36 30 -43 0 -7 -14 -32 -30 -56 -17 -24 -30 -50 -30 -58 0 -23 -44 -93 -62 -98 -9 -3 -37 -1 -63 6 -58 15 -132 5 -161 -22 l-21 -20 -39 26 c-63 43 -144 131 -144 157 1 21 31 68 44 68 13 0 5 -28 -9 -34 -18 -7 -20 -26 -2 -26 6 0 23 -14 36 -31 13 -16 39 -45 58 -64 30 -30 37 -33 59 -23 13 6 24 14 24 18 0 13 48 18 60 6 9 -8 11 -6 8 8 -2 15 -13 20 -48 23 -48 4 -74 26 -67 55 3 9 1 18 -5 20 -12 4 8 58 21 58 25 0 -15 97 -45 107 -5 2 -20 -18 -34 -44 -29 -55 -55 -70 -44 -26 8 34 50 119 63 127 10 7 51 82 51 96 0 8 82 132 85 127 0 -1 -2 -43 -5 -94 -3 -52 -1 -98 5 -107 9 -15 -7 -35 -50 -61 -15 -9 -15 -13 5 -38 19 -23 24 -26 34 -14 12 16 66 29 66 17 0 -4 -7 -13 -15 -20 -19 -16 -19 -46 0 -54 8 -3 12 -12 9 -21 -4 -10 0 -15 10 -15 13 0 15 7 11 38 -5 26 0 48 14 77 29 54 28 110 -2 129 -22 15 -22 18 -14 98 5 46 13 91 18 100 5 10 9 22 9 26 0 11 -35 52 -44 52 -4 0 -16 -19 -26 -42 -12 -27 -18 -34 -15 -18 2 14 7 42 10 62 5 30 34 68 52 68 1 0 12 -19 24 -42z m6548 -78 c14 -1 14 -2 -1 -13 -19 -15 -12 -32 17 -40 16 -4 14 -5 -7 -6 -32 -1 -36 3 -43 60 -5 38 -4 41 6 22 7 -13 19 -23 28 -23z m63 15 c-2 -14 -6 -25 -8 -25 -2 0 -4 11 -4 25 0 14 4 25 9 25 4 0 6 -11 3 -25z m72 10 c-4 -8 -2 -15 3 -15 5 0 9 -9 9 -21 0 -19 -1 -19 -13 -3 -15 21 -17 54 -3 54 5 0 7 -7 4 -15z m205 -17 c0 -28 -2 -30 -9 -13 -12 28 -12 45 0 45 6 0 10 -15 9 -32z m134 12 c3 -11 1 -23 -4 -26 -5 -3 -9 6 -9 20 0 31 6 34 13 6z m-241 -14 c12 -17 9 -33 -3 -16 -8 11 -12 12 -16 2 -6 -15 -23 -6 -23 12 0 16 32 17 42 2z m-4547 -42 c-9 -9 -18 -14 -21 -11 -3 3 3 14 13 24 10 10 19 15 21 11 2 -4 -4 -15 -13 -24z m4604 7 c-15 -5 -22 6 -14 19 6 9 10 9 16 -1 5 -8 4 -15 -2 -18z m-4726 -53 c7 -4 0 -8 -16 -8 -20 0 -26 4 -20 12 4 7 6 26 6 43 -2 29 -2 29 8 -5 6 -19 16 -38 22 -42z m267 55 c-8 -3 -18 -11 -22 -17 -5 -7 -8 -4 -8 7 0 11 7 17 23 16 15 0 17 -2 7 -6z m-3182 -80 c-13 -3 -18 -15 -19 -46 0 -33 -2 -38 -9 -22 -5 11 -9 32 -9 48 -1 23 3 27 27 26 16 -1 20 -3 10 -6z m207 -35 c14 -2 20 -11 20 -28 0 -20 -6 -26 -27 -28 -23 -3 -28 2 -37 35 -16 57 -14 72 7 46 9 -11 26 -23 37 -25z m-125 5 c0 -28 -8 -29 -26 -5 -18 23 -17 28 6 28 14 0 20 -7 20 -23z m205 -3 c-6 -20 -7 -21 -20 -3 -12 15 -11 19 3 24 22 8 25 5 17 -21z m145 11 c15 -29 12 -39 -6 -16 -15 20 -15 20 -30 1 -14 -20 -14 -20 -14 0 0 38 32 47 50 15z m62 -3 c-9 -9 -15 -9 -24 0 -9 9 -7 12 12 12 19 0 21 -3 12 -12z m8424 -376 c-10 -10 -29 15 -21 28 6 9 10 8 17 -4 6 -10 7 -20 4 -24z m135 -280 c13 -37 75 -62 151 -62 48 0 58 -3 113 -33 17 -9 42 -22 58 -29 15 -7 27 -18 27 -26 0 -18 28 -26 44 -13 11 9 27 3 74 -25 61 -36 99 -77 93 -103 -1 -7 7 -40 19 -72 20 -54 21 -59 6 -81 -24 -34 -20 -51 23 -91 48 -44 61 -89 34 -119 -28 -32 -79 -51 -100 -37 -19 12 -69 108 -77 150 -8 38 -44 79 -69 79 -12 0 -33 -9 -47 -20 -32 -25 -51 -25 -83 0 -18 15 -33 18 -56 14 -17 -4 -31 -2 -31 3 0 22 -91 74 -136 78 -25 2 -54 11 -63 19 -10 9 -22 16 -27 16 -16 1 -83 68 -100 102 -12 24 -15 49 -12 105 l5 74 -48 43 c-32 29 -49 52 -49 68 0 22 3 23 75 23 55 1 79 5 91 17 15 15 19 13 45 -17 16 -18 34 -47 40 -63z m-614 -469 c-14 -4 -18 -13 -17 -41 3 -52 -1 -62 -10 -27 -16 61 -12 75 18 74 18 -1 21 -3 9 -6z m163 -18 c0 -8 -7 -15 -15 -15 -8 0 -15 -4 -15 -10 0 -5 -4 -10 -10 -10 -5 0 -10 7 -10 15 0 8 7 15 15 15 8 0 15 5 15 10 0 6 5 10 10 10 6 0 10 -7 10 -15z m-80 -15 c0 -11 -3 -20 -8 -20 -4 0 -13 9 -20 20 -11 18 -10 20 8 20 13 0 20 -7 20 -20z m200 -2 c0 -17 -2 -18 -15 -4 -8 8 -15 16 -15 19 0 2 7 4 15 4 8 0 15 -9 15 -19z m80 -13 c0 -5 -5 -3 -10 5 -9 13 -11 13 -20 0 -8 -13 -10 -13 -10 2 0 9 6 18 13 21 12 4 27 -10 27 -28z m718 -181 c23 -7 85 -88 74 -98 -3 -3 -14 -6 -24 -6 -10 0 -18 -4 -18 -10 0 -27 -19 -5 -30 36 -7 25 -21 51 -32 57 -35 22 -19 34 30 21z m-640 -106 c7 -7 12 -19 12 -27 0 -14 -2 -14 -9 -2 -8 12 -12 12 -25 2 -14 -12 -16 -11 -16 6 0 33 17 42 38 21z m-2898 -47 c0 -5 -7 -12 -16 -15 -20 -8 -2208 -8 -2228 0 -9 3 -16 10 -16 15 0 5 474 9 1130 9 656 0 1130 -4 1130 -9z m-2195 -199 c0 -166 -19 -162 -23 4 -2 99 0 125 10 122 10 -4 13 -36 13 -126z m175 108 c34 -34 19 -74 -32 -85 -46 -10 -61 -24 -47 -41 15 -19 38 -18 61 3 22 19 37 9 22 -15 -7 -10 -27 -18 -52 -20 -36 -3 -43 0 -53 22 -17 36 -6 52 43 68 31 11 43 20 43 34 0 30 -54 32 -77 2 l-18 -23 0 22 c0 26 35 53 67 53 13 0 32 -9 43 -20z m163 5 c-1 -5 -19 -12 -40 -15 l-38 -5 -3 -72 c-2 -40 -7 -73 -12 -73 -11 0 -14 163 -3 174 11 11 98 3 96 -9z m62 -15 c22 -43 68 -42 90 0 9 17 20 28 24 25 13 -8 -53 -170 -69 -170 -14 0 -82 154 -73 168 7 12 12 8 28 -23z m253 14 c24 -17 29 -56 10 -71 -7 -6 -30 -16 -51 -23 -27 -8 -37 -17 -35 -28 4 -22 51 -27 68 -8 14 18 30 21 30 7 0 -20 -33 -41 -64 -41 -39 0 -59 19 -54 51 3 22 10 28 63 51 40 18 39 42 -2 46 -24 2 -34 -2 -43 -18 -6 -11 -15 -18 -21 -15 -14 9 -11 23 11 45 24 24 57 26 88 4z m351 -10 c30 -25 42 -64 20 -64 -6 0 -24 14 -39 30 -34 36 -60 38 -96 6 -24 -20 -28 -31 -28 -74 0 -66 22 -92 75 -92 28 0 42 6 51 20 7 11 18 20 25 20 45 0 -2 -66 -54 -76 -97 -18 -162 86 -119 190 29 69 108 88 165 40z m151 -34 c23 0 33 6 40 24 10 28 30 43 30 24 0 -21 -62 -168 -71 -168 -11 0 -20 16 -51 93 -30 73 -28 109 3 58 14 -24 26 -31 49 -31z m132 -9 l3 -53 40 58 c22 32 45 57 50 56 14 -3 19 -172 6 -172 -14 0 -24 44 -18 75 8 46 -12 37 -49 -20 -19 -31 -41 -54 -47 -52 -13 4 -22 138 -12 165 10 27 24 -1 27 -57z m172 37 c8 -16 22 -24 44 -26 26 -3 34 1 41 21 11 29 31 45 31 25 0 -27 -63 -169 -74 -165 -15 5 -78 156 -70 169 7 11 13 6 28 -24z m176 -14 c0 -48 29 -45 70 6 38 48 52 44 25 -5 -17 -34 -17 -36 0 -55 23 -26 13 -68 -19 -76 -12 -3 -40 -4 -62 -2 l-39 3 -3 65 c-3 72 4 114 18 105 6 -3 10 -22 10 -41z m180 -44 c0 -53 -4 -90 -10 -90 -11 0 -14 162 -3 173 12 13 13 7 13 -83z m74 58 c8 -15 22 -24 43 -26 27 -3 34 2 49 30 12 22 19 28 21 17 5 -23 -54 -164 -69 -164 -15 0 -81 152 -72 167 7 11 13 6 28 -24z m254 16 c24 -17 29 -56 10 -71 -7 -6 -30 -16 -51 -23 -27 -8 -37 -17 -35 -28 4 -24 46 -27 69 -6 25 23 37 10 14 -16 -31 -35 -115 -17 -115 25 0 16 30 41 60 50 35 10 50 24 43 41 -7 19 -57 18 -73 -1 -16 -19 -30 -19 -30 -1 0 19 38 46 65 46 11 0 31 -7 43 -16z m2877 -21 c5 -14 3 -15 -6 -6 -6 6 -18 9 -25 6 -8 -3 -14 0 -14 6 0 18 37 13 45 -6z m743 -85 c18 -18 15 -38 -6 -38 -21 0 -42 18 -42 37 0 16 32 17 48 1z"/>
<path d="M296 1931 c-3 -5 0 -13 7 -19 15 -13 42 1 33 17 -9 13 -33 15 -40 2z"/>
<path d="M4330 288 c0 -7 5 -20 10 -28 9 -13 11 -13 20 0 16 24 12 40 -10 40 -11 0 -20 -6 -20 -12z"/>
<path d="M5040 281 c0 -18 17 -38 25 -30 12 14 8 44 -7 47 -13 2 -18 -3 -18 -17z"/>
<path d="M5390 283 c0 -10 4 -24 9 -32 7 -11 11 -9 20 8 7 12 9 26 6 31 -10 17 -35 11 -35 -7z"/>
<path d="M5540 250 c0 -25 4 -30 24 -30 37 0 56 10 56 30 0 20 -19 30 -56 30 -20 0 -24 -5 -24 -30z"/>
<path d="M5820 281 c0 -25 20 -38 31 -20 15 23 10 39 -11 39 -13 0 -20 -7 -20 -19z"/>
</g>
<g id="layer106" fill="#a0ab9f" stroke="none">
<path d="M0 2000 l0 -2000 5120 0 5120 0 0 2000 0 2000 -5120 0 -5120 0 0 -2000z m625 1883 c6 -25 30 -117 41 -150 2 -7 12 -13 24 -13 14 0 28 -16 49 -58 16 -32 36 -64 45 -71 22 -18 20 -43 -6 -76 -19 -24 -26 -27 -63 -23 -47 6 -105 43 -105 69 0 20 -76 84 -124 104 -47 20 -116 19 -145 -1 -30 -22 -71 -5 -71 28 0 13 -1 34 -2 48 -3 23 0 24 96 37 95 13 156 34 156 53 0 15 69 80 85 80 8 0 17 -12 20 -27z m797 -70 c36 -32 10 -86 -31 -63 -33 17 -27 73 8 79 3 1 13 -6 23 -16z m-551 -2 c-38 -10 -37 -30 1 -38 29 -6 31 -7 10 -12 -33 -8 -32 -25 3 -32 30 -7 30 -7 -6 -8 -33 -1 -37 2 -43 30 -12 61 -9 69 27 68 29 -1 29 -2 8 -8z m204 -35 c8 4 15 16 15 27 0 35 17 6 24 -40 6 -43 -7 -61 -17 -23 -7 27 -36 25 -46 -2 l-9 -23 -6 25 c-14 63 -9 93 10 58 9 -17 20 -25 29 -22z m125 34 c0 -5 -6 -10 -12 -11 -10 0 -10 -2 0 -6 6 -2 9 -9 6 -15 -4 -6 0 -14 7 -20 10 -6 7 -8 -10 -6 -17 2 -27 11 -32 30 -4 15 -4 29 -1 32 9 10 42 7 42 -4z m43 -2 c4 -10 8 -9 16 2 13 19 19 12 23 -25 3 -26 0 -30 -24 -33 -18 -2 -28 1 -28 10 0 7 -3 23 -6 36 -7 23 10 32 19 10z m91 1 c13 11 16 11 16 0 0 -8 3 -24 7 -37 5 -21 3 -23 -22 -20 -21 2 -31 10 -36 30 -8 29 0 46 12 26 6 -9 11 -9 23 1z m-185 -41 c1 -5 -3 -8 -9 -8 -5 0 -10 12 -9 28 0 24 1 25 9 7 5 -11 9 -23 9 -27z m4337 -87 c18 -36 121 -81 249 -108 28 -6 41 -14 43 -28 7 -50 13 -61 40 -77 27 -16 29 -22 29 -78 1 -35 7 -70 16 -83 10 -16 12 -29 5 -47 -7 -17 -6 -36 2 -58 13 -38 1 -65 -53 -115 -28 -27 -29 -32 -24 -87 6 -71 -4 -89 -58 -96 -22 -3 -66 -17 -98 -31 -51 -22 -63 -23 -106 -14 -62 13 -119 6 -146 -18 -16 -15 -33 -19 -85 -16 -36 1 -64 4 -63 6 1 2 -4 31 -11 63 -8 33 -12 65 -9 72 6 16 -62 91 -90 100 -12 4 -34 19 -49 35 -16 15 -40 29 -55 31 -33 4 -43 35 -50 146 -4 56 -1 78 10 90 8 9 27 42 42 72 28 56 62 100 77 100 5 0 34 20 66 45 31 25 62 45 69 45 7 0 16 8 22 18 5 9 22 18 38 19 49 3 97 15 118 30 28 19 57 12 71 -16z m-2231 -531 c3 -5 18 -10 33 -10 15 0 50 -11 77 -25 31 -15 68 -24 96 -25 46 0 47 -1 163 -121 64 -67 114 -124 112 -128 -10 -15 24 -121 58 -179 20 -35 36 -70 36 -77 0 -7 12 -27 26 -44 23 -28 25 -35 17 -73 -15 -69 10 -114 86 -153 61 -32 109 -83 113 -120 2 -23 9 -31 28 -35 45 -9 239 -110 254 -132 14 -19 13 -24 -2 -50 -19 -33 -55 -37 -105 -12 -33 18 -57 19 -204 12 -73 -4 -93 -2 -93 9 0 14 -61 43 -91 43 -25 0 -86 55 -93 85 -6 25 -108 135 -126 135 -5 0 -20 11 -34 25 -19 19 -36 25 -68 25 -24 0 -54 7 -66 16 -37 25 -76 32 -141 25 -46 -6 -68 -4 -94 9 -86 42 -227 50 -279 16 -20 -13 -26 -13 -48 -1 -47 27 -89 45 -107 45 -10 0 -25 5 -33 10 -13 9 -13 11 0 20 8 5 29 10 46 10 17 0 43 10 58 21 26 21 28 21 42 3 14 -19 14 -19 25 0 11 18 12 18 28 -2 12 -16 31 -22 75 -26 61 -6 106 0 106 14 0 5 -7 15 -15 24 -8 8 -15 18 -15 22 0 4 -8 12 -17 19 -14 10 -15 17 -5 41 7 16 26 44 42 61 20 22 30 42 30 64 0 35 41 82 95 109 17 8 38 23 47 35 17 20 18 20 18 -7 0 -29 7 -29 57 -6 18 9 30 5 67 -18 28 -17 46 -36 46 -48 0 -12 5 -16 15 -12 10 3 15 -1 15 -13 0 -23 25 -46 35 -31 3 5 15 10 26 10 16 0 19 -5 14 -20 -4 -14 3 -27 25 -47 17 -15 32 -35 34 -43 7 -38 17 -46 46 -42 38 5 38 12 -2 55 -18 19 -49 57 -68 85 -19 28 -43 51 -53 52 -9 0 -16 3 -15 8 3 9 -50 62 -62 62 -5 0 -17 11 -25 24 -9 13 -25 26 -35 29 -12 3 -20 14 -20 27 0 11 -4 19 -9 16 -5 -4 -31 5 -57 18 -34 17 -52 22 -61 14 -7 -5 -20 -7 -31 -4 -24 8 -78 -19 -85 -43 -2 -10 -17 -21 -36 -24 -26 -6 -35 -15 -56 -63 -14 -31 -25 -61 -25 -67 0 -5 -25 -34 -56 -63 -41 -40 -54 -58 -50 -72 5 -14 -1 -24 -19 -36 -14 -9 -25 -25 -25 -36 0 -11 -6 -20 -14 -20 -8 0 -17 -9 -21 -19 -5 -17 -65 -37 -65 -22 0 3 25 37 56 75 37 45 54 74 51 87 -8 29 13 96 38 123 12 13 33 46 46 73 12 26 47 71 77 99 39 36 55 58 55 76 0 17 7 29 23 37 16 7 25 22 30 48 4 21 11 44 17 51 11 15 33 16 42 2z m-1027 -70 c59 -32 112 -81 112 -106 0 -14 8 -25 20 -29 24 -8 25 -22 5 -62 -11 -21 -35 -41 -78 -62 -35 -17 -70 -40 -80 -51 -12 -14 -29 -20 -58 -20 -22 0 -53 -7 -68 -16 -26 -15 -32 -15 -78 0 -31 10 -54 25 -60 39 -20 40 -31 81 -38 130 -6 44 -4 50 24 76 17 16 31 35 31 43 0 7 20 24 45 38 25 14 45 28 45 32 0 22 130 13 178 -12z m5820 -75 c30 -30 77 -84 106 -120 56 -70 91 -95 135 -95 14 0 50 -9 78 -19 29 -10 54 -17 56 -15 2 2 19 -1 38 -6 19 -6 59 -14 89 -20 90 -15 102 -19 120 -35 9 -8 35 -15 58 -15 42 0 102 -38 102 -65 0 -7 7 -18 16 -25 8 -7 14 -23 13 -34 -3 -27 10 -66 27 -84 8 -7 14 -20 14 -28 0 -8 14 -43 31 -77 25 -50 28 -66 20 -85 -6 -12 -11 -38 -11 -56 0 -19 -7 -50 -15 -69 -19 -46 -11 -69 23 -65 22 2 28 -2 35 -27 5 -16 12 -37 16 -45 7 -16 6 -179 -2 -265 -5 -56 -22 -105 -35 -105 -5 0 -23 -14 -41 -30 -23 -23 -36 -28 -49 -22 -9 5 -36 12 -60 16 -24 3 -51 10 -60 15 -9 5 -41 19 -69 32 -55 25 -60 33 -42 71 8 19 5 35 -20 88 -20 41 -28 72 -25 87 4 16 -2 34 -18 56 -14 17 -44 72 -68 120 -31 65 -54 97 -88 125 -50 41 -66 72 -77 145 -6 38 -17 58 -51 95 -24 25 -45 55 -45 67 -1 11 -2 47 -3 80 -3 88 -18 116 -99 180 -40 30 -83 65 -97 77 -73 62 -232 111 -331 101 -43 -4 -47 -2 -51 22 -4 20 -2 24 11 20 9 -3 44 2 76 11 56 15 208 50 230 53 6 0 34 -24 63 -54z m-6596 -89 c14 -20 8 -36 -11 -36 -15 0 -18 5 -14 21 5 17 2 20 -13 17 -25 -4 -31 -48 -9 -65 13 -9 23 -9 38 -2 15 9 18 8 15 -3 -7 -19 -53 -22 -72 -3 -25 25 -21 74 7 84 24 9 48 4 59 -13z m-184 2 c8 -8 15 -8 27 2 18 15 19 3 4 -37 -10 -27 -11 -28 -25 -8 -9 11 -19 26 -23 34 -5 8 -16 11 -30 6 -17 -5 -21 -14 -21 -48 0 -51 -15 -38 -25 21 l-7 42 44 0 c24 0 49 -5 56 -12z m269 -7 c9 -15 9 -23 -2 -37 -18 -25 -49 -8 -53 30 -3 21 1 26 20 26 13 0 29 -9 35 -19z m69 11 c14 -9 25 -52 14 -52 -5 0 -12 5 -15 10 -9 15 -25 12 -25 -6 0 -23 -17 -8 -22 21 -6 30 21 45 48 27z m54 -2 c-13 -9 -13 -11 0 -20 8 -5 11 -10 6 -10 -5 0 -3 -7 4 -15 10 -12 10 -15 -3 -15 -16 0 -27 20 -27 51 0 11 7 19 18 19 14 0 15 -2 2 -10z m163 -28 c-4 -18 -8 -20 -19 -11 -19 15 -18 27 4 31 22 6 22 6 15 -20z m-70 0 c10 -15 1 -32 -18 -32 -12 0 -25 21 -25 40 0 12 34 6 43 -8z m4057 -62 c19 -35 -2 -51 -35 -26 -16 12 -17 16 -6 30 18 21 28 20 41 -4z m-703 -238 c20 -13 20 -46 0 -50 -15 -3 -18 0 -12 17 5 17 2 21 -15 21 -26 0 -35 -22 -20 -50 9 -18 17 -20 43 -14 28 6 30 5 18 -10 -20 -24 -47 -20 -70 10 -24 30 -27 54 -9 72 13 13 47 16 65 4z m363 -6 c10 -13 7 -15 -16 -13 -20 1 -29 -3 -32 -16 -6 -28 18 -49 47 -42 21 5 23 4 12 -9 -8 -9 -18 -16 -24 -16 -19 0 -57 43 -57 65 0 41 45 60 70 31z m-294 -5 c5 9 10 7 15 -7 12 -29 10 -41 -4 -47 -21 -8 -35 5 -43 38 -6 27 -5 28 8 17 13 -10 18 -10 24 -1z m84 -18 c0 -34 -18 -37 -34 -6 -13 27 -13 28 10 28 18 0 24 -5 24 -22z m55 17 c10 17 25 1 25 -28 0 -25 -1 -25 -15 -6 -13 17 -14 17 -15 2 0 -17 -20 -27 -20 -10 0 4 -3 18 -7 32 -6 22 -5 23 9 12 11 -9 18 -10 23 -2z m230 -38 c-6 -16 -8 -15 -21 2 -18 26 -18 34 4 38 19 4 27 -14 17 -40z m54 37 c12 18 31 5 31 -22 0 -15 -3 -18 -9 -9 -6 10 -10 10 -21 -3 -15 -19 -30 -4 -30 30 0 17 2 17 10 5 8 -13 11 -13 19 -1z m91 -16 c0 -34 -18 -37 -34 -6 -13 27 -13 28 10 28 18 0 24 -5 24 -22z m54 16 c9 8 16 10 16 5 0 -5 3 -19 6 -30 4 -16 0 -23 -14 -26 -26 -7 -42 9 -42 42 0 19 3 21 9 11 8 -12 12 -12 25 -2z m56 -26 c0 -32 -5 -28 -14 10 -4 19 -3 26 4 22 5 -3 10 -18 10 -32z m62 5 c-5 -35 -17 -36 -36 0 -13 26 -13 27 13 28 24 1 27 -2 23 -28z m-4941 -390 c12 -24 32 -57 45 -74 13 -17 24 -36 24 -42 0 -6 14 -27 30 -46 55 -62 63 -198 14 -216 -32 -13 -32 -48 1 -60 14 -5 25 -14 25 -19 0 -6 14 -24 30 -41 17 -17 30 -36 30 -43 0 -7 -14 -32 -30 -56 -17 -24 -30 -50 -30 -58 0 -23 -44 -93 -62 -98 -9 -3 -37 -1 -63 6 -58 15 -132 5 -161 -22 l-21 -20 -39 26 c-63 43 -144 131 -144 157 1 21 31 68 44 68 13 0 5 -28 -9 -34 -18 -7 -20 -26 -2 -26 6 0 23 -14 36 -31 13 -16 39 -45 58 -64 30 -30 37 -33 59 -23 13 6 24 14 24 18 0 13 48 18 60 6 9 -8 11 -6 8 8 -2 15 -13 20 -48 23 -48 4 -74 26 -67 55 3 9 1 18 -5 20 -12 4 8 58 21 58 25 0 -15 97 -45 107 -5 2 -20 -18 -34 -44 -29 -55 -55 -70 -44 -26 8 34 50 119 63 127 10 7 51 82 51 96 0 8 82 132 85 127 0 -1 -2 -43 -5 -94 -3 -52 -1 -98 5 -107 9 -15 -7 -35 -50 -61 -15 -9 -15 -13 5 -38 19 -23 24 -26 34 -14 12 16 66 29 66 17 0 -4 -7 -13 -15 -20 -19 -16 -19 -46 0 -54 8 -3 12 -12 9 -21 -4 -10 0 -15 10 -15 13 0 15 7 11 38 -5 26 0 48 14 77 29 54 28 110 -2 129 -22 15 -22 18 -14 98 5 46 13 91 18 100 5 10 9 22 9 26 0 11 -35 52 -44 52 -4 0 -16 -19 -26 -42 -12 -27 -18 -34 -15 -18 2 14 7 42 10 62 5 30 34 68 52 68 1 0 12 -19 24 -42z m6643 -50 c18 -25 21 -48 7 -48 -5 0 -11 9 -13 20 -4 25 -24 22 -21 -2 2 -10 -2 -18 -7 -18 -6 0 -10 13 -10 28 0 47 19 55 44 20z m61 12 c3 -5 1 -10 -6 -10 -8 0 -9 -3 0 -13 6 -8 8 -17 4 -21 -4 -4 -1 -12 7 -17 12 -8 9 -9 -10 -7 -17 2 -26 10 -28 26 -6 41 16 69 33 42z m-175 -20 c0 -13 7 -20 20 -20 11 0 20 -4 20 -10 0 -5 -7 -10 -15 -10 -8 0 -15 -4 -15 -10 0 -5 9 -10 19 -10 11 0 23 -4 26 -10 4 -6 -8 -10 -28 -10 -27 0 -36 5 -41 23 -9 35 -7 77 4 77 6 0 10 -9 10 -20z m370 10 c-13 -9 -13 -11 0 -20 10 -6 11 -10 3 -10 -19 0 -16 -18 5 -24 10 -3 6 -4 -8 -3 -20 2 -26 8 -28 35 -3 28 0 32 20 32 19 0 20 -2 8 -10z m72 -2 c3 -7 -4 -21 -14 -30 -19 -19 -21 -16 -12 20 7 24 19 29 26 10z m62 -15 c-1 -15 3 -31 9 -36 8 -5 5 -7 -8 -5 -25 4 -36 68 -12 68 10 0 13 -9 11 -27z m96 -3 c0 -13 -5 -17 -15 -14 -8 4 -15 1 -15 -5 0 -22 -18 -11 -22 14 -4 20 -3 23 8 14 11 -9 15 -7 20 5 8 20 24 11 24 -14z m-341 -8 c9 -18 8 -24 -4 -28 -23 -9 -42 2 -47 29 -4 21 -1 24 18 23 13 0 27 -11 33 -24z m51 10 c0 -10 5 -23 12 -30 9 -9 7 -12 -8 -12 -16 0 -21 7 -21 30 0 17 4 30 9 30 4 0 8 -8 8 -18z m486 -5 c4 -4 0 -7 -8 -7 -9 0 -19 -6 -21 -12 -3 -7 -6 -3 -6 9 -1 20 19 26 35 10z m67 -7 c-3 -12 -6 -19 -7 -18 -1 2 -8 11 -15 21 -12 15 -11 17 7 17 15 0 19 -5 15 -20z m-5239 -5 c-4 -8 -1 -15 6 -15 6 0 8 -5 4 -11 -3 -6 0 -15 7 -20 11 -7 9 -9 -7 -9 -17 0 -23 7 -26 30 -5 30 -1 40 13 40 5 0 6 -7 3 -15z m140 0 c-4 -8 -1 -15 6 -15 6 0 8 -5 4 -11 -3 -6 0 -15 7 -21 11 -7 9 -8 -6 -6 -14 2 -21 12 -23 36 -2 17 1 32 7 32 6 0 8 -7 5 -15z m230 0 c-4 -8 -2 -15 4 -15 5 0 12 -9 15 -20 3 -12 0 -20 -8 -20 -14 0 -29 45 -20 60 9 15 15 12 9 -5z m-428 -31 c4 -19 13 -38 20 -41 8 -3 11 -9 8 -14 -7 -12 -51 -11 -59 1 -3 6 -1 10 5 10 8 0 11 14 8 40 -4 50 9 53 18 4z m163 3 c0 -12 -3 -16 -6 -9 -4 10 -9 9 -24 -4 -18 -16 -19 -16 -19 1 0 19 30 46 42 39 5 -3 8 -15 7 -27z m140 -14 c1 -7 -10 -13 -24 -13 -18 0 -25 5 -25 20 0 11 7 20 15 20 8 0 15 6 16 13 1 14 17 -22 18 -40z m4780 18 c-15 -5 -22 6 -14 19 6 9 10 9 16 -1 5 -8 4 -15 -2 -18z m-4705 -3 c-4 -6 0 -14 7 -20 11 -7 9 -8 -6 -6 -12 2 -21 12 -23 26 -3 16 0 20 12 16 9 -3 13 -11 10 -16z m-3211 -71 c30 0 32 -4 16 -44 l-10 -27 -21 32 c-14 23 -27 32 -42 30 -18 -3 -21 -9 -19 -45 2 -46 -13 -59 -22 -18 -3 14 -7 36 -10 49 -6 32 4 39 45 31 19 -4 47 -8 63 -8z m107 -12 c0 -8 6 -15 14 -15 25 0 58 -34 51 -53 -7 -18 -59 -24 -69 -9 -13 21 -18 92 -7 92 6 0 11 -7 11 -15z m112 6 c17 9 18 7 12 -18 -10 -40 -13 -41 -35 -14 -21 26 -27 53 -7 33 8 -8 17 -8 30 -1z m155 -19 c7 -31 -4 -40 -22 -16 -13 17 -14 17 -15 2 0 -25 -17 -22 -25 3 -5 13 -2 25 6 29 23 15 50 6 56 -18z m63 7 c0 -4 -3 -15 -6 -23 -6 -15 -8 -15 -20 1 -18 24 -17 29 6 29 11 0 20 -3 20 -7z m8416 -387 c-10 -10 -29 15 -21 28 6 9 10 8 17 -4 6 -10 7 -20 4 -24z m135 -280 c13 -37 75 -62 151 -62 48 0 58 -3 113 -33 17 -9 42 -22 58 -29 15 -7 27 -18 27 -26 0 -18 28 -26 44 -13 11 9 27 3 74 -25 61 -36 99 -77 93 -103 -1 -7 7 -40 19 -72 20 -54 21 -59 6 -81 -24 -34 -20 -51 23 -91 48 -44 61 -89 34 -119 -28 -32 -79 -51 -100 -37 -19 12 -69 108 -77 150 -8 38 -44 79 -69 79 -12 0 -33 -9 -47 -20 -32 -25 -51 -25 -83 0 -18 15 -33 18 -56 14 -17 -4 -31 -2 -31 3 0 22 -91 74 -136 78 -25 2 -54 11 -63 19 -10 9 -22 16 -27 16 -16 1 -83 68 -100 102 -12 24 -15 49 -12 105 l5 74 -48 43 c-32 29 -49 52 -49 68 0 22 3 23 75 23 55 1 79 5 91 17 15 15 19 13 45 -17 16 -18 34 -47 40 -63z m-6285 -75 c-35 -26 -17 -97 25 -97 36 0 51 60 22 92 -20 22 -11 24 11 2 22 -22 20 -67 -4 -89 -47 -43 -112 25 -76 79 9 14 22 26 28 26 7 0 4 -6 -6 -13z m288 -12 c-13 -20 -14 -31 -5 -57 10 -30 9 -31 -4 -14 -19 25 -19 46 1 74 21 30 28 28 8 -3z m289 -29 c-2 -44 1 -56 15 -59 12 -3 11 -5 -5 -6 -21 -1 -23 3 -23 59 0 33 4 60 8 60 4 0 7 -24 5 -54z m591 11 c16 24 32 40 37 37 5 -3 8 -29 8 -57 -1 -33 -4 -41 -6 -22 -7 48 -20 50 -47 6 -15 -22 -28 -41 -31 -41 -3 0 -4 28 -3 63 1 59 1 60 7 17 l6 -45 29 42z m260 18 c-13 -20 -14 -31 -5 -57 10 -30 9 -31 -4 -14 -19 25 -19 46 1 74 21 30 28 28 8 -3z m508 -33 c-3 -9 -10 -3 -18 18 -19 44 -17 50 5 21 10 -14 16 -31 13 -39z m57 19 c-8 -23 -14 -29 -19 -20 -5 7 -1 22 8 35 22 29 25 25 11 -15z m483 26 c-6 -7 -12 -33 -15 -57 -3 -42 -4 -41 -5 13 -2 47 1 57 14 57 12 0 14 -3 6 -13z m307 -52 c-20 -54 -23 -57 -35 -40 -8 10 -14 24 -14 29 0 6 4 5 9 -3 11 -17 33 -5 29 17 -2 16 23 65 29 58 2 -2 -6 -29 -18 -61z m300 8 c-2 -54 -2 -55 -8 -18 l-6 40 -29 -43 c-34 -50 -43 -43 -36 25 4 40 5 43 8 16 4 -42 12 -41 40 2 12 19 24 35 27 35 3 0 4 -26 4 -57z m488 -25 c-2 -18 -4 -6 -4 27 0 33 2 48 4 33 2 -15 2 -42 0 -60z m229 66 c-19 -19 -21 -65 -3 -84 10 -12 9 -12 -5 -1 -31 23 -19 101 15 101 5 0 1 -7 -7 -16z m290 0 c-19 -19 -21 -65 -3 -84 10 -12 9 -12 -5 -1 -31 23 -19 101 15 101 5 0 1 -7 -7 -16z m74 -34 c0 -36 -9 -60 -23 -60 -7 0 -7 4 1 12 16 16 15 70 0 88 -11 12 -10 12 5 1 9 -7 17 -26 17 -41z m-3301 -15 c0 -16 -1 -17 -8 -5 -5 8 -12 26 -16 40 -7 24 -7 24 9 5 8 -11 15 -29 15 -40z m47 14 c-12 -29 -14 -31 -15 -11 -1 13 5 29 12 36 18 21 20 12 3 -25z m604 -10 c0 -15 -7 -33 -17 -40 -15 -13 -15 -12 -4 10 8 13 10 37 7 55 -4 22 -3 27 4 16 5 -8 10 -27 10 -41z m722 -46 c8 -10 6 -13 -8 -13 -17 0 -18 6 -14 57 5 58 5 58 8 13 2 -24 8 -50 14 -57z m503 49 c-8 -8 -25 17 -25 38 0 9 6 6 16 -8 9 -13 13 -26 9 -30z m597 -19 c3 -36 1 -43 -15 -43 -14 0 -16 4 -7 19 5 11 11 37 11 58 1 43 6 28 11 -34z m-1365 -17 c-5 -16 -24 -18 -30 -4 -3 9 3 14 14 14 11 0 18 -5 16 -10z m-1627 -16 c-8 -6 -22 -10 -30 -10 -8 0 -4 6 10 13 27 15 44 12 20 -3z m548 9 c-2 -6 -8 -10 -13 -10 -5 0 -11 4 -13 10 -2 6 4 11 13 11 9 0 15 -5 13 -11z m4797 -309 c-3 -5 -13 -10 -21 -10 -13 0 -14 -8 -9 -40 8 -48 -10 -55 -20 -7 -4 17 -9 40 -11 50 -4 14 1 17 31 17 22 0 34 -4 30 -10z m60 0 c17 14 20 3 9 -37 -8 -30 -16 -29 -37 6 -21 36 -22 47 -2 31 12 -10 18 -10 30 0z m85 -4 c0 -8 3 -22 7 -31 5 -14 2 -16 -15 -10 -13 4 -22 2 -22 -4 0 -6 -4 -11 -10 -11 -5 0 -10 15 -10 33 0 23 3 28 10 17 8 -12 10 -12 16 3 8 21 24 23 24 3z m50 4 c-12 -8 -12 -11 3 -28 22 -24 21 -32 -2 -32 -14 0 -18 5 -14 20 3 12 -1 22 -11 26 -25 10 -19 24 12 24 20 0 23 -3 12 -10z m188 -10 c-14 -22 -24 -19 -15 5 4 8 11 15 17 15 6 0 6 -7 -2 -20z m147 -19 c2 -17 0 -29 -5 -26 -9 6 -19 53 -12 60 8 8 12 0 17 -34z m-256 14 c0 -5 -4 -18 -8 -29 -7 -17 -8 -16 -24 7 -21 33 -22 32 8 32 14 0 25 -4 24 -10z m56 5 c7 6 12 0 13 -21 2 -26 -1 -30 -20 -27 -17 2 -24 11 -26 33 -3 24 -1 28 9 18 8 -8 17 -9 24 -3z m155 -41 c0 -5 -7 -9 -15 -9 -9 0 -12 6 -9 15 6 15 24 11 24 -6z m578 -175 c23 -7 85 -88 74 -98 -3 -3 -14 -6 -24 -6 -10 0 -18 -4 -18 -10 0 -27 -19 -5 -30 36 -7 25 -21 51 -32 57 -35 22 -19 34 30 21z m-628 -126 c0 -21 -3 -28 -8 -20 -5 7 -16 10 -24 7 -10 -4 -17 1 -21 14 -6 25 0 31 30 31 19 0 23 -5 23 -32z m82 10 c-6 -6 -15 -8 -19 -4 -4 4 -1 11 7 16 19 12 27 3 12 -12z m138 13 c0 -5 -7 -12 -16 -15 -24 -9 -28 -7 -14 9 14 17 30 20 30 6z m-3132 -53 c3 -17 -56 -18 -1127 -18 -1153 0 -1158 0 -1124 33 3 4 511 6 1127 5 1058 -3 1121 -4 1124 -20z m-2180 -188 c2 -119 -4 -147 -32 -137 -13 5 -16 25 -16 125 0 65 3 122 7 126 4 4 14 5 23 4 12 -3 15 -24 18 -118z m166 101 c30 -33 17 -63 -36 -89 -27 -12 -48 -27 -48 -32 0 -14 46 -12 70 2 24 16 35 6 21 -20 -27 -51 -126 -29 -119 26 3 25 11 31 77 62 26 11 23 29 -5 36 -21 5 -31 2 -45 -14 -20 -25 -39 -29 -39 -7 0 48 90 74 124 36z m166 4 c0 -11 -11 -15 -40 -15 l-40 0 0 -76 c0 -66 -2 -75 -17 -72 -15 3 -19 16 -21 77 -2 41 -1 80 2 88 8 20 116 18 116 -2z m56 -10 c5 -21 12 -25 40 -25 27 0 37 5 46 25 10 23 38 35 38 18 0 -5 -14 -45 -32 -90 -42 -110 -56 -110 -97 -2 -17 44 -31 85 -31 90 0 20 30 7 36 -16z m264 5 c36 -36 19 -71 -42 -92 -20 -7 -38 -17 -40 -23 -4 -14 42 -19 55 -6 6 6 17 11 24 11 22 0 15 -29 -12 -46 -33 -22 -83 -10 -98 23 -15 34 -1 53 52 71 30 10 41 19 39 31 -5 25 -43 25 -67 0 -31 -33 -49 -11 -21 24 27 34 80 37 110 7z m331 10 c28 -15 54 -70 38 -80 -17 -11 -36 -2 -42 20 -6 22 -46 35 -80 26 -54 -13 -63 -135 -13 -168 24 -16 66 -7 90 18 24 27 46 26 46 -2 0 -30 -50 -64 -96 -64 -112 0 -163 156 -77 236 28 26 97 33 134 14z m111 -15 c9 -19 19 -25 45 -25 27 0 35 5 43 25 5 14 17 25 25 25 19 0 17 -8 -24 -108 -37 -90 -53 -89 -92 6 -16 40 -29 80 -29 88 0 23 19 16 32 -11z m178 -25 c0 -27 4 -50 9 -50 5 0 23 23 41 50 48 75 60 68 60 -40 0 -73 -3 -90 -15 -90 -12 0 -15 13 -15 58 l0 57 -38 -57 c-21 -34 -44 -58 -54 -58 -16 0 -18 11 -18 90 0 73 3 90 15 90 11 0 15 -12 15 -50z m172 25 c9 -19 19 -25 45 -25 27 0 35 5 43 25 5 14 16 25 25 25 20 0 20 2 -17 -92 -29 -72 -49 -100 -64 -85 -9 9 -64 149 -64 163 0 23 20 16 32 -11z m178 -9 c0 -59 35 -58 71 0 11 19 27 34 35 34 19 0 18 -9 -5 -47 -17 -27 -18 -33 -5 -43 17 -15 19 -61 2 -78 -7 -7 -38 -12 -70 -12 l-58 0 0 90 c0 73 3 90 15 90 10 0 15 -10 15 -34z m188 -59 c2 -70 0 -87 -12 -87 -19 0 -26 22 -26 90 0 66 7 93 24 87 7 -2 12 -37 14 -90z m68 68 c5 -21 12 -25 40 -25 27 0 37 5 46 25 12 26 39 35 37 13 -1 -31 -66 -163 -80 -166 -12 -2 -25 19 -48 75 -17 43 -31 84 -31 91 0 23 30 12 36 -13z m264 5 c36 -36 19 -71 -42 -92 -20 -7 -38 -17 -38 -23 -2 -16 30 -18 56 -4 28 15 43 5 28 -18 -28 -44 -115 -33 -122 15 -5 31 10 46 59 61 29 9 39 17 37 29 -5 25 -43 26 -66 2 -26 -28 -47 -18 -31 13 16 30 28 37 67 37 19 0 40 -8 52 -20z m2869 -28 c2 -25 -44 -9 -47 17 -3 18 0 22 12 18 9 -4 16 -1 17 6 1 14 17 -22 18 -41z m96 29 c0 -8 -6 -16 -13 -19 -8 -2 -10 2 -5 14 6 17 5 17 -17 1 -34 -24 -50 -21 -21 4 27 22 56 22 56 0z m75 -2 c0 -24 -23 -21 -28 4 -2 10 3 17 12 17 10 0 16 -9 16 -21z m100 1 c0 -13 -5 -18 -15 -14 -12 5 -13 10 -4 20 15 19 19 18 19 -6z m468 -102 c18 -18 15 -38 -6 -38 -21 0 -42 18 -42 37 0 16 32 17 48 1z m-138 -144 c0 -17 -22 -14 -28 4 -2 7 3 12 12 12 9 0 16 -7 16 -16z"/>
<path d="M714 3575 c-4 -9 0 -23 9 -32 21 -21 49 -9 45 19 -4 28 -45 38 -54 13z"/>
<path d="M3253 2650 c-34 -14 -28 -44 15 -73 40 -28 76 -28 100 1 12 16 18 51 6 39 -4 -3 -23 5 -43 18 -39 27 -45 28 -78 15z"/>
</g>
<g id="layer107" fill="#cab97a" stroke="none">
<path d="M0 2000 l0 -2000 5120 0 5120 0 0 2000 0 2000 -5120 0 -5120 0 0 -2000z m630 1878 c0 -16 5 -39 12 -51 6 -12 14 -38 17 -57 5 -26 12 -36 31 -40 18 -4 32 -21 50 -57 14 -28 36 -63 49 -77 22 -23 23 -28 11 -56 -26 -63 -94 -76 -153 -30 -14 11 -31 20 -37 20 -7 0 -10 8 -7 19 3 15 -8 31 -44 61 -81 68 -162 84 -226 44 -20 -13 -26 -12 -48 2 -17 11 -24 22 -20 35 3 10 0 27 -6 38 -21 33 2 47 88 54 114 10 149 22 177 64 29 42 73 74 92 66 8 -3 14 -18 14 -35z m792 -65 c36 -32 10 -86 -31 -63 -33 17 -27 73 8 79 3 1 13 -6 23 -16z m-551 -2 c-37 -10 -36 -29 1 -40 26 -7 28 -9 10 -10 -30 -1 -24 -23 9 -32 20 -6 18 -7 -12 -8 -39 -1 -49 12 -49 72 0 24 3 27 33 26 29 -1 29 -2 8 -8z m204 -35 c8 4 15 16 15 27 0 35 17 6 24 -40 6 -43 -7 -61 -17 -23 -7 27 -36 25 -46 -2 l-9 -23 -6 25 c-14 63 -9 93 10 58 9 -17 20 -25 29 -22z m125 34 c0 -5 -6 -10 -12 -11 -10 0 -10 -2 0 -6 6 -2 9 -9 6 -15 -4 -6 0 -14 7 -20 10 -6 7 -8 -10 -6 -17 2 -27 11 -32 30 -4 15 -4 29 -1 32 9 10 42 7 42 -4z m43 -2 c4 -10 8 -9 16 2 13 19 19 12 23 -25 3 -26 0 -30 -24 -33 -18 -2 -28 1 -28 10 0 7 -3 23 -6 36 -7 23 10 32 19 10z m91 1 c13 11 16 11 16 0 0 -8 3 -24 7 -37 5 -21 3 -23 -22 -20 -21 2 -31 10 -36 30 -8 29 0 46 12 26 6 -9 11 -9 23 1z m-185 -41 c1 -5 -3 -8 -9 -8 -5 0 -10 12 -9 28 0 24 1 25 9 7 5 -11 9 -23 9 -27z m4343 -79 c3 -23 11 -29 73 -54 22 -9 51 -23 65 -30 14 -7 48 -16 75 -20 63 -8 77 -16 80 -46 1 -13 3 -30 4 -37 0 -7 17 -20 37 -29 31 -15 35 -21 30 -45 -10 -49 5 -119 26 -127 18 -6 18 -8 4 -20 -18 -15 -22 -71 -6 -87 16 -16 -5 -62 -46 -100 -37 -33 -39 -42 -34 -121 2 -28 -2 -49 -12 -60 -17 -20 -14 -37 13 -64 41 -41 10 -79 -36 -45 -15 11 -17 17 -8 28 7 8 10 24 7 35 -9 32 -50 32 -123 0 -53 -24 -69 -27 -88 -18 -13 6 -51 11 -84 11 -51 0 -63 -4 -84 -26 -22 -24 -26 -24 -65 -14 -28 8 -45 8 -54 1 -17 -14 -59 -2 -46 13 10 12 7 47 -5 67 -4 6 -7 27 -7 47 0 41 -31 82 -83 109 -16 9 -37 26 -48 39 -10 13 -33 26 -51 30 -30 5 -35 11 -47 52 -22 84 -18 161 10 212 15 25 35 63 46 84 11 21 29 45 40 53 11 8 52 36 90 63 39 27 80 59 91 71 13 12 27 18 34 14 11 -7 66 5 115 25 11 5 34 9 52 9 25 1 32 -4 35 -20z m-2227 -540 c4 -6 19 -7 35 -4 16 4 31 2 35 -5 12 -19 76 -40 131 -42 30 -1 54 -5 54 -8 0 -3 51 -58 114 -123 62 -65 113 -124 112 -130 -3 -39 21 -117 55 -177 21 -38 39 -75 39 -82 0 -6 12 -24 26 -39 24 -25 25 -29 14 -69 -9 -33 -9 -49 1 -74 16 -36 57 -75 80 -76 18 0 149 -120 149 -136 0 -14 23 -28 120 -74 117 -56 113 -54 130 -83 13 -24 13 -28 -6 -54 -25 -32 -55 -35 -122 -9 -42 16 -120 16 -243 1 -30 -4 -38 -1 -42 15 -5 21 -44 40 -82 40 -29 0 -105 69 -105 95 0 21 -111 135 -131 135 -8 0 -20 9 -27 20 -9 15 -23 20 -55 20 -26 0 -61 10 -92 26 -45 23 -58 25 -126 20 -52 -3 -83 -1 -101 8 -13 7 -42 16 -64 21 -21 4 -43 10 -49 13 -18 12 -130 0 -158 -16 -26 -16 -30 -16 -76 11 -44 24 -73 34 -108 36 -17 1 -17 27 -1 37 7 4 26 7 44 6 19 -2 41 6 58 19 26 21 28 21 42 3 14 -19 14 -19 25 0 11 18 12 18 28 -2 12 -16 31 -22 75 -26 61 -6 106 0 106 14 0 5 -7 15 -15 24 -8 8 -15 18 -15 22 0 4 -8 12 -17 19 -14 10 -15 17 -5 41 7 16 26 44 42 61 20 22 30 42 30 64 0 35 41 82 95 109 17 8 38 23 47 35 17 20 18 20 18 -7 0 -29 7 -29 57 -6 18 9 30 5 67 -18 28 -17 46 -36 46 -48 0 -12 5 -16 15 -12 10 3 15 -1 15 -13 0 -23 25 -46 35 -31 3 5 15 10 26 10 16 0 19 -5 14 -20 -4 -14 3 -27 25 -47 17 -15 32 -35 34 -43 7 -38 17 -46 46 -42 38 5 38 12 -2 55 -18 19 -49 57 -68 85 -19 28 -43 51 -53 52 -9 0 -16 3 -15 8 3 9 -50 62 -62 62 -5 0 -17 11 -25 24 -9 13 -25 26 -35 29 -12 3 -20 14 -20 27 0 11 -4 19 -9 16 -5 -4 -31 5 -57 18 -34 17 -52 22 -61 14 -7 -5 -20 -7 -31 -4 -24 8 -78 -19 -85 -43 -2 -10 -17 -21 -36 -24 -26 -6 -35 -15 -56 -63 -14 -31 -25 -61 -25 -67 0 -5 -25 -34 -56 -63 -41 -40 -54 -58 -50 -72 5 -14 -1 -24 -19 -36 -14 -9 -25 -25 -25 -36 0 -11 -6 -20 -14 -20 -8 0 -17 -9 -21 -19 -7 -22 -65 -35 -65 -14 0 7 5 13 10 13 6 0 10 5 10 10 0 11 18 33 62 79 22 23 27 35 22 59 -8 37 10 92 39 124 12 13 31 43 42 68 11 24 46 69 77 101 38 37 58 65 58 80 0 16 8 28 23 34 15 7 23 20 25 45 2 19 8 41 14 47 13 16 54 17 63 2z m-1040 -58 c17 -9 48 -31 70 -49 60 -50 63 -52 73 -52 16 0 19 -43 8 -90 -11 -45 -25 -58 -116 -102 -14 -6 -35 -20 -47 -31 -12 -11 -43 -22 -70 -24 -26 -3 -56 -12 -66 -21 -15 -14 -22 -13 -71 3 -56 19 -55 19 -96 105 -4 9 -8 43 -9 77 -1 56 1 64 24 79 14 9 25 24 25 33 0 9 24 33 53 53 48 33 57 36 122 35 44 0 81 -6 100 -16z m5829 -83 c28 -29 75 -83 105 -120 29 -36 65 -71 80 -76 40 -14 148 -41 231 -58 144 -28 175 -37 205 -54 17 -10 47 -18 67 -17 40 1 82 -28 94 -67 4 -11 13 -26 21 -34 7 -8 11 -23 8 -33 -4 -11 4 -39 19 -66 13 -27 39 -78 56 -115 29 -63 30 -70 16 -90 -9 -13 -13 -31 -10 -45 4 -13 1 -37 -6 -54 -12 -28 -11 -32 12 -52 24 -21 45 -63 40 -81 -2 -4 2 -14 8 -21 28 -33 5 -351 -26 -370 -9 -5 -28 -23 -42 -38 -23 -25 -31 -27 -71 -22 -59 8 -185 54 -216 80 -23 18 -24 23 -14 56 10 31 8 41 -15 87 -14 28 -26 67 -26 85 0 20 -9 46 -21 61 -11 14 -40 66 -64 114 -32 67 -55 98 -93 130 -42 35 -51 49 -61 94 -6 29 -13 61 -16 72 -7 29 -33 64 -59 82 -24 15 -51 97 -39 117 3 5 2 34 -2 64 -8 64 -25 85 -140 173 -130 101 -261 148 -381 138 -50 -4 -55 -3 -51 14 3 10 1 21 -4 24 -20 12 -7 23 20 18 16 -3 55 2 87 11 86 26 164 43 203 44 28 1 42 -8 85 -51z m-6602 -92 c14 -20 8 -36 -11 -36 -15 0 -18 5 -14 21 5 17 2 20 -13 17 -25 -4 -31 -48 -9 -65 13 -9 23 -9 38 -2 15 9 18 8 15 -3 -7 -19 -53 -22 -72 -3 -25 25 -21 74 7 84 24 9 48 4 59 -13z m-184 2 c8 -8 15 -8 27 2 18 15 19 3 4 -37 -10 -27 -11 -28 -25 -8 -9 11 -19 26 -23 34 -5 8 -16 11 -30 6 -17 -5 -21 -14 -21 -48 0 -51 -15 -38 -25 21 l-7 42 44 0 c24 0 49 -5 56 -12z m269 -7 c9 -15 9 -23 -2 -37 -18 -25 -49 -8 -53 30 -3 21 1 26 20 26 13 0 29 -9 35 -19z m69 11 c14 -9 25 -52 14 -52 -5 0 -12 5 -15 10 -9 15 -25 12 -25 -6 0 -23 -17 -8 -22 21 -6 30 21 45 48 27z m54 -2 c-13 -9 -13 -11 0 -20 8 -5 11 -10 6 -10 -5 0 -3 -7 4 -15 10 -12 10 -15 -3 -15 -16 0 -27 20 -27 51 0 11 7 19 18 19 14 0 15 -2 2 -10z m170 -14 c0 -6 -5 -18 -10 -26 -8 -13 -11 -12 -24 5 -21 27 -20 30 9 31 14 1 25 -3 25 -10z m-77 -14 c10 -15 1 -32 -18 -32 -12 0 -25 21 -25 40 0 12 34 6 43 -8z m3354 -300 c20 -13 20 -46 0 -50 -15 -3 -18 0 -12 17 5 17 2 21 -15 21 -26 0 -35 -22 -20 -50 9 -18 17 -20 43 -14 28 6 30 5 18 -10 -20 -24 -47 -20 -70 10 -24 30 -27 54 -9 72 13 13 47 16 65 4z m363 -6 c10 -13 7 -15 -16 -13 -20 1 -29 -3 -32 -16 -6 -28 18 -49 47 -42 21 5 23 4 12 -9 -8 -9 -18 -16 -24 -16 -19 0 -57 43 -57 65 0 41 45 60 70 31z m-294 -5 c5 9 10 7 15 -7 12 -29 10 -41 -4 -47 -21 -8 -35 5 -43 38 -6 27 -5 28 8 17 13 -10 18 -10 24 -1z m84 -18 c0 -34 -18 -37 -34 -6 -13 27 -13 28 10 28 18 0 24 -5 24 -22z m55 17 c10 17 25 1 25 -28 0 -25 -1 -25 -15 -6 -13 17 -14 17 -15 2 0 -17 -20 -27 -20 -10 0 4 -3 18 -7 32 -6 22 -5 23 9 12 11 -9 18 -10 23 -2z m230 -38 c-6 -16 -8 -15 -21 2 -18 26 -18 34 4 38 19 4 27 -14 17 -40z m54 37 c12 18 31 5 31 -22 0 -15 -3 -18 -9 -9 -6 10 -10 10 -21 -3 -15 -19 -30 -4 -30 30 0 17 2 17 10 5 8 -13 11 -13 19 -1z m91 -16 c0 -34 -18 -37 -34 -6 -13 27 -13 28 10 28 18 0 24 -5 24 -22z m54 16 c9 8 16 10 16 5 0 -5 3 -19 6 -30 4 -16 0 -23 -14 -26 -26 -7 -42 9 -42 42 0 19 3 21 9 11 8 -12 12 -12 25 -2z m56 -26 c0 -32 -5 -28 -14 10 -4 19 -3 26 4 22 5 -3 10 -18 10 -32z m62 5 c-5 -35 -17 -36 -36 0 -13 26 -13 27 13 28 24 1 27 -2 23 -28z m-4936 -384 c8 -19 28 -54 44 -76 17 -23 30 -46 30 -52 0 -5 13 -24 29 -41 35 -35 53 -118 38 -175 -6 -19 -10 -54 -11 -77 0 -35 5 -47 37 -78 44 -42 45 -54 12 -93 -13 -16 -33 -53 -45 -83 -34 -94 -36 -95 -121 -83 -58 9 -84 8 -121 -3 -27 -8 -48 -18 -48 -23 0 -6 -9 -10 -20 -10 -11 0 -20 4 -20 9 0 5 -10 13 -22 17 -24 7 -42 20 -66 49 -9 10 -32 33 -50 50 -18 18 -32 41 -32 55 0 23 35 70 52 70 14 0 9 -28 -7 -34 -18 -7 -20 -26 -2 -26 6 0 23 -14 36 -31 13 -16 39 -45 58 -64 30 -30 37 -33 59 -23 13 6 24 14 24 18 0 13 48 18 60 6 9 -8 11 -6 8 8 -2 15 -13 20 -48 23 -48 4 -74 26 -67 55 3 9 1 18 -5 20 -12 4 8 58 21 58 26 0 -15 97 -45 107 -5 2 -20 -17 -32 -41 -11 -25 -30 -50 -40 -55 -18 -10 -19 -8 -12 22 11 45 30 85 63 133 16 23 34 56 40 75 14 39 88 148 101 149 4 0 6 -6 3 -14 -9 -22 -10 -169 -2 -189 7 -17 -9 -37 -50 -62 -15 -9 -15 -13 5 -38 19 -23 24 -26 34 -14 12 16 66 29 66 17 0 -4 -7 -13 -15 -20 -19 -16 -19 -46 0 -54 8 -3 12 -12 9 -21 -4 -10 0 -15 10 -15 13 0 15 7 11 38 -5 26 0 48 14 77 29 54 28 110 -2 129 -22 15 -22 18 -14 98 5 46 13 91 18 100 5 10 9 22 9 26 0 11 -35 52 -44 52 -3 0 -17 -24 -31 -52 l-24 -53 5 45 c11 91 32 129 72 130 7 0 20 -16 28 -36z m6638 -56 c18 -25 21 -48 7 -48 -5 0 -11 9 -13 20 -4 25 -24 22 -21 -2 2 -10 -2 -18 -7 -18 -6 0 -10 13 -10 28 0 47 19 55 44 20z m61 12 c3 -5 1 -10 -6 -10 -8 0 -9 -3 0 -13 6 -8 8 -17 4 -21 -4 -4 -1 -12 7 -17 12 -8 9 -9 -10 -7 -17 2 -26 10 -28 26 -6 41 16 69 33 42z m-175 -20 c0 -13 7 -20 20 -20 11 0 20 -4 20 -10 0 -5 -7 -10 -15 -10 -8 0 -15 -4 -15 -10 0 -5 9 -10 19 -10 11 0 23 -4 26 -10 4 -6 -8 -10 -28 -10 -27 0 -36 5 -41 23 -9 35 -7 77 4 77 6 0 10 -9 10 -20z m370 10 c-13 -9 -13 -11 0 -20 10 -6 11 -10 3 -10 -19 0 -16 -18 5 -24 10 -3 6 -4 -8 -3 -20 2 -26 8 -28 35 -3 28 0 32 20 32 19 0 20 -2 8 -10z m72 -2 c3 -7 -4 -21 -14 -30 -19 -19 -21 -16 -12 20 7 24 19 29 26 10z m62 -15 c-1 -15 3 -31 9 -36 8 -5 5 -7 -8 -5 -25 4 -36 68 -12 68 10 0 13 -9 11 -27z m96 -3 c0 -13 -5 -17 -15 -14 -8 4 -15 1 -15 -5 0 -22 -18 -11 -22 14 -4 20 -3 23 8 14 11 -9 15 -7 20 5 8 20 24 11 24 -14z m-341 -8 c9 -18 8 -24 -4 -28 -23 -9 -42 2 -47 29 -4 21 -1 24 18 23 13 0 27 -11 33 -24z m51 10 c0 -10 5 -23 12 -30 9 -9 7 -12 -8 -12 -16 0 -21 7 -21 30 0 17 4 30 9 30 4 0 8 -8 8 -18z m485 8 c-3 -5 -1 -11 4 -15 11 -6 3 -35 -10 -35 -4 0 -6 7 -3 15 4 8 1 15 -5 15 -6 0 -11 -6 -12 -12 0 -7 -4 -4 -9 7 -13 29 -12 30 15 31 14 1 23 -2 20 -6z m75 -18 c0 -27 -17 -25 -36 4 -12 17 -11 19 11 19 20 0 25 -5 25 -23z m-5246 -7 c-4 -8 -1 -15 6 -15 6 0 8 -5 4 -11 -3 -6 0 -15 7 -20 11 -7 9 -9 -7 -9 -17 0 -23 7 -26 30 -5 30 -1 40 13 40 5 0 6 -7 3 -15z m140 0 c-4 -8 -1 -15 6 -15 6 0 8 -5 4 -11 -3 -6 0 -15 7 -21 11 -7 9 -8 -6 -6 -14 2 -21 12 -23 36 -2 17 1 32 7 32 6 0 8 -7 5 -15z m230 0 c-4 -8 -2 -15 4 -15 5 0 12 -9 15 -20 3 -12 0 -20 -8 -20 -14 0 -29 45 -20 60 9 15 15 12 9 -5z m-428 -31 c4 -19 13 -38 20 -41 8 -3 11 -9 8 -14 -7 -12 -51 -11 -59 1 -3 6 -1 10 5 10 8 0 11 14 8 40 -4 50 9 53 18 4z m163 3 c0 -12 -3 -16 -6 -9 -4 10 -9 9 -24 -4 -18 -16 -19 -16 -19 1 0 19 30 46 42 39 5 -3 8 -15 7 -27z m140 -14 c1 -7 -10 -13 -24 -13 -18 0 -25 5 -25 20 0 11 7 20 15 20 8 0 15 6 16 13 1 14 17 -22 18 -40z m4780 18 c-15 -5 -22 6 -14 19 6 9 10 9 16 -1 5 -8 4 -15 -2 -18z m-4705 -3 c-4 -6 0 -14 7 -20 11 -7 9 -8 -6 -6 -12 2 -21 12 -23 26 -3 16 0 20 12 16 9 -3 13 -11 10 -16z m-3211 -71 c30 0 32 -4 16 -44 l-10 -27 -21 32 c-14 23 -27 32 -42 30 -18 -3 -21 -9 -19 -45 2 -46 -13 -59 -22 -18 -3 14 -7 36 -10 49 -6 32 4 39 45 31 19 -4 47 -8 63 -8z m107 -12 c0 -8 6 -15 14 -15 25 0 58 -34 51 -53 -7 -18 -59 -24 -69 -9 -13 21 -18 92 -7 92 6 0 11 -7 11 -15z m112 6 c17 9 18 7 12 -18 -10 -40 -13 -41 -35 -14 -21 26 -27 53 -7 33 8 -8 17 -8 30 -1z m155 -19 c7 -31 -4 -40 -22 -16 -13 17 -14 17 -15 2 0 -25 -17 -22 -25 3 -5 13 -2 25 6 29 23 15 50 6 56 -18z m63 7 c0 -4 -3 -15 -6 -23 -6 -15 -8 -15 -20 1 -18 24 -17 29 6 29 11 0 20 -3 20 -7z m8420 -374 c0 -23 -2 -24 -20 -15 -21 11 -25 22 -13 33 15 16 33 6 33 -18z m330 10 c0 -9 -6 -12 -15 -9 -8 4 -12 10 -9 15 8 14 24 10 24 -6z m-194 -296 c17 -41 59 -61 141 -65 65 -3 122 -21 146 -45 10 -11 25 -20 35 -21 58 -5 69 -10 142 -56 71 -45 100 -79 100 -118 0 -18 9 -51 19 -75 20 -44 20 -44 -1 -78 l-22 -34 42 -37 c54 -49 67 -108 32 -145 -13 -14 -31 -25 -41 -25 -10 0 -21 -5 -24 -10 -4 -7 -16 -4 -34 6 -27 16 -81 117 -81 152 0 23 -25 59 -51 72 -15 9 -26 7 -48 -10 -34 -24 -70 -26 -97 -5 -12 9 -31 12 -51 9 -18 -4 -33 -2 -33 3 0 5 -20 24 -45 43 -34 25 -57 35 -92 37 -29 1 -52 8 -59 18 -6 8 -16 15 -23 15 -19 0 -98 78 -114 113 -10 21 -15 58 -14 106 l2 74 -47 42 c-38 34 -46 48 -44 70 l3 28 76 -2 c67 -2 78 0 89 18 12 20 13 20 46 -12 19 -17 40 -48 48 -68z m-6290 -82 c-35 -26 -17 -97 25 -97 36 0 51 60 22 92 -20 22 -11 24 11 2 22 -22 20 -67 -4 -89 -47 -43 -112 25 -76 79 9 14 22 26 28 26 7 0 4 -6 -6 -13z m288 -12 c-13 -20 -14 -31 -5 -57 10 -30 9 -31 -4 -14 -19 25 -19 46 1 74 21 30 28 28 8 -3z m289 -29 c-2 -44 1 -56 15 -59 12 -3 11 -5 -5 -6 -21 -1 -23 3 -23 59 0 33 4 60 8 60 4 0 7 -24 5 -54z m591 11 c16 24 32 40 37 37 5 -3 8 -29 8 -57 -1 -33 -4 -41 -6 -22 -7 48 -20 50 -47 6 -15 -22 -28 -41 -31 -41 -3 0 -4 28 -3 63 1 59 1 60 7 17 l6 -45 29 42z m260 18 c-13 -20 -14 -31 -5 -57 10 -30 9 -31 -4 -14 -19 25 -19 46 1 74 21 30 28 28 8 -3z m508 -33 c-3 -9 -10 -3 -18 18 -19 44 -17 50 5 21 10 -14 16 -31 13 -39z m57 19 c-8 -23 -14 -29 -19 -20 -5 7 -1 22 8 35 22 29 25 25 11 -15z m483 26 c-6 -7 -12 -33 -15 -57 -3 -42 -4 -41 -5 13 -2 47 1 57 14 57 12 0 14 -3 6 -13z m307 -52 c-20 -54 -23 -57 -35 -40 -8 10 -14 24 -14 29 0 6 4 5 9 -3 11 -17 33 -5 29 17 -2 16 23 65 29 58 2 -2 -6 -29 -18 -61z m300 8 c-2 -54 -2 -55 -8 -18 l-6 40 -29 -43 c-34 -50 -43 -43 -36 25 4 40 5 43 8 16 4 -42 12 -41 40 2 12 19 24 35 27 35 3 0 4 -26 4 -57z m488 -25 c-2 -18 -4 -6 -4 27 0 33 2 48 4 33 2 -15 2 -42 0 -60z m229 66 c-19 -19 -21 -65 -3 -84 10 -12 9 -12 -5 -1 -31 23 -19 101 15 101 5 0 1 -7 -7 -16z m290 0 c-19 -19 -21 -65 -3 -84 10 -12 9 -12 -5 -1 -31 23 -19 101 15 101 5 0 1 -7 -7 -16z m74 -34 c0 -36 -9 -60 -23 -60 -7 0 -7 4 1 12 16 16 15 70 0 88 -11 12 -10 12 5 1 9 -7 17 -26 17 -41z m-3301 -15 c0 -16 -1 -17 -8 -5 -5 8 -12 26 -16 40 -7 24 -7 24 9 5 8 -11 15 -29 15 -40z m47 14 c-12 -29 -14 -31 -15 -11 -1 13 5 29 12 36 18 21 20 12 3 -25z m604 -10 c0 -15 -7 -33 -17 -40 -15 -13 -15 -12 -4 10 8 13 10 37 7 55 -4 22 -3 27 4 16 5 -8 10 -27 10 -41z m722 -46 c8 -10 6 -13 -8 -13 -17 0 -18 6 -14 57 5 58 5 58 8 13 2 -24 8 -50 14 -57z m503 49 c-8 -8 -25 17 -25 38 0 9 6 6 16 -8 9 -13 13 -26 9 -30z m597 -19 c3 -36 1 -43 -15 -43 -14 0 -16 4 -7 19 5 11 11 37 11 58 1 43 6 28 11 -34z m-1365 -17 c-5 -16 -24 -18 -30 -4 -3 9 3 14 14 14 11 0 18 -5 16 -10z m-1627 -16 c-8 -6 -22 -10 -30 -10 -8 0 -4 6 10 13 27 15 44 12 20 -3z m548 9 c-2 -6 -8 -10 -13 -10 -5 0 -11 4 -13 10 -2 6 4 11 13 11 9 0 15 -5 13 -11z m4797 -309 c-3 -5 -13 -10 -21 -10 -13 0 -14 -8 -9 -40 8 -48 -10 -55 -20 -7 -4 17 -9 40 -11 50 -4 14 1 17 31 17 22 0 34 -4 30 -10z m60 0 c17 14 20 3 9 -37 -8 -30 -16 -29 -37 6 -21 36 -22 47 -2 31 12 -10 18 -10 30 0z m85 -4 c0 -8 3 -22 7 -31 5 -14 2 -16 -15 -10 -13 4 -22 2 -22 -4 0 -6 -4 -11 -10 -11 -5 0 -10 15 -10 33 0 23 3 28 10 17 8 -12 10 -12 16 3 8 21 24 23 24 3z m50 4 c-12 -8 -12 -11 3 -28 22 -24 21 -32 -2 -32 -14 0 -18 5 -14 20 3 12 -1 22 -11 26 -25 10 -19 24 12 24 20 0 23 -3 12 -10z m188 -10 c-14 -22 -24 -19 -15 5 4 8 11 15 17 15 6 0 6 -7 -2 -20z m157 12 c-5 -4 -10 -16 -10 -27 0 -11 5 -23 10 -27 6 -5 6 -8 -2 -8 -14 0 -18 6 -27 43 -6 23 -3 27 16 27 13 0 19 -4 13 -8z m-266 -17 c0 -5 -4 -18 -8 -29 -7 -17 -8 -16 -24 7 -21 33 -22 32 8 32 14 0 25 -4 24 -10z m56 5 c7 6 12 0 13 -21 2 -26 -1 -30 -20 -27 -17 2 -24 11 -26 33 -3 24 -1 28 9 18 8 -8 17 -9 24 -3z m155 -35 c10 -13 9 -15 -8 -15 -15 0 -20 5 -16 15 4 8 7 15 9 15 1 0 8 -7 15 -15z m450 -170 c0 -8 -4 -15 -10 -15 -5 0 -10 7 -10 15 0 8 5 15 10 15 6 0 10 -7 10 -15z m148 -15 c17 -11 32 -26 32 -34 0 -7 7 -19 15 -26 23 -19 18 -35 -16 -47 -41 -16 -47 -11 -60 42 -7 28 -18 47 -30 50 -20 7 -24 17 -12 28 12 12 37 7 71 -13z m-648 -122 c0 -21 -3 -28 -8 -20 -5 7 -16 10 -24 7 -10 -4 -17 1 -21 14 -6 25 0 31 30 31 19 0 23 -5 23 -32z m82 10 c-6 -6 -15 -8 -19 -4 -4 4 -1 11 7 16 19 12 27 3 12 -12z m138 13 c0 -5 -7 -12 -16 -15 -24 -9 -28 -7 -14 9 14 17 30 20 30 6z m-3132 -53 c3 -17 -56 -18 -1127 -18 -1153 0 -1158 0 -1124 33 3 4 511 6 1127 5 1058 -3 1121 -4 1124 -20z m3909 -38 c1 -18 -2 -28 -7 -25 -12 7 -14 55 -2 55 4 0 8 -14 9 -30z m-107 5 c0 -8 -4 -15 -9 -15 -13 0 -22 16 -14 24 11 11 23 6 23 -9z m170 0 c0 -8 -4 -15 -10 -15 -5 0 -10 7 -10 15 0 8 5 15 10 15 6 0 10 -7 10 -15z m-6152 -155 c2 -119 -4 -147 -32 -137 -13 5 -16 25 -16 125 0 65 3 122 7 126 4 4 14 5 23 4 12 -3 15 -24 18 -118z m166 101 c30 -33 17 -63 -36 -89 -27 -12 -48 -27 -48 -32 0 -14 46 -12 70 2 24 16 35 6 21 -20 -27 -51 -126 -29 -119 26 3 25 11 31 77 62 26 11 23 29 -5 36 -21 5 -31 2 -45 -14 -20 -25 -39 -29 -39 -7 0 48 90 74 124 36z m166 4 c0 -11 -11 -15 -40 -15 l-40 0 0 -76 c0 -66 -2 -75 -17 -72 -15 3 -19 16 -21 77 -2 41 -1 80 2 88 8 20 116 18 116 -2z m56 -10 c5 -21 12 -25 40 -25 27 0 37 5 46 25 10 23 38 35 38 18 0 -5 -14 -45 -32 -90 -42 -110 -56 -110 -97 -2 -17 44 -31 85 -31 90 0 20 30 7 36 -16z m264 5 c36 -36 19 -71 -42 -92 -20 -7 -38 -17 -40 -23 -4 -14 42 -19 55 -6 6 6 17 11 24 11 22 0 15 -29 -12 -46 -33 -22 -83 -10 -98 23 -15 34 -1 53 52 71 30 10 41 19 39 31 -5 25 -43 25 -67 0 -31 -33 -49 -11 -21 24 27 34 80 37 110 7z m331 10 c28 -15 54 -70 38 -80 -17 -11 -36 -2 -42 20 -6 22 -46 35 -80 26 -54 -13 -63 -135 -13 -168 24 -16 66 -7 90 18 24 27 46 26 46 -2 0 -30 -50 -64 -96 -64 -112 0 -163 156 -77 236 28 26 97 33 134 14z m111 -15 c9 -19 19 -25 45 -25 27 0 35 5 43 25 5 14 17 25 25 25 19 0 17 -8 -24 -108 -37 -90 -53 -89 -92 6 -16 40 -29 80 -29 88 0 23 19 16 32 -11z m178 -25 c0 -27 4 -50 9 -50 5 0 23 23 41 50 48 75 60 68 60 -40 0 -73 -3 -90 -15 -90 -12 0 -15 13 -15 58 l0 57 -38 -57 c-21 -34 -44 -58 -54 -58 -16 0 -18 11 -18 90 0 73 3 90 15 90 11 0 15 -12 15 -50z m172 25 c9 -19 19 -25 45 -25 27 0 35 5 43 25 5 14 16 25 25 25 20 0 20 2 -17 -92 -29 -72 -49 -100 -64 -85 -9 9 -64 149 -64 163 0 23 20 16 32 -11z m178 -9 c0 -59 35 -58 71 0 11 19 27 34 35 34 19 0 18 -9 -5 -47 -17 -27 -18 -33 -5 -43 17 -15 19 -61 2 -78 -7 -7 -38 -12 -70 -12 l-58 0 0 90 c0 73 3 90 15 90 10 0 15 -10 15 -34z m188 -59 c2 -70 0 -87 -12 -87 -19 0 -26 22 -26 90 0 66 7 93 24 87 7 -2 12 -37 14 -90z m68 68 c5 -21 12 -25 40 -25 27 0 37 5 46 25 12 26 39 35 37 13 -1 -31 -66 -163 -80 -166 -12 -2 -25 19 -48 75 -17 43 -31 84 -31 91 0 23 30 12 36 -13z m264 5 c36 -36 19 -71 -42 -92 -20 -7 -38 -17 -38 -23 -2 -16 30 -18 56 -4 28 15 43 5 28 -18 -28 -44 -115 -33 -122 15 -5 31 10 46 59 61 29 9 39 17 37 29 -5 25 -43 26 -66 2 -26 -28 -47 -18 -31 13 16 30 28 37 67 37 19 0 40 -8 52 -20z m2869 -28 c2 -25 -44 -9 -47 17 -3 18 0 22 12 18 9 -4 16 -1 17 6 1 14 17 -22 18 -41z m96 29 c0 -8 -6 -16 -13 -19 -8 -2 -10 2 -5 14 6 17 5 17 -17 1 -34 -24 -50 -21 -21 4 27 22 56 22 56 0z m75 -2 c0 -24 -23 -21 -28 4 -2 10 3 17 12 17 10 0 16 -9 16 -21z m100 1 c0 -13 -5 -18 -15 -14 -12 5 -13 10 -4 20 15 19 19 18 19 -6z m940 -51 c0 -18 -2 -19 -15 -9 -15 12 -12 30 6 30 5 0 9 -10 9 -21z m-178 -4 c11 -15 10 -27 -2 -20 -5 3 -10 0 -10 -7 -1 -13 -30 19 -30 33 0 10 34 6 42 -6z m-282 -50 c10 -12 10 -18 0 -30 -16 -19 -23 -19 -50 3 -13 11 -20 24 -16 30 10 17 51 15 66 -3z m-150 -141 c0 -17 -22 -14 -28 4 -2 7 3 12 12 12 9 0 16 -7 16 -16z"/>
<path d="M495 3789 c-22 -10 -57 -19 -77 -19 -50 0 -85 -15 -93 -39 -11 -34 3 -40 45 -20 42 21 75 25 65 9 -3 -5 -1 -10 4 -10 6 0 11 4 11 9 0 14 71 24 83 12 6 -6 19 -11 28 -11 18 0 43 -55 33 -72 -3 -5 0 -22 6 -39 10 -24 17 -28 36 -23 15 4 24 2 24 -5 0 -16 40 -13 46 3 3 8 -1 30 -10 48 -8 18 -16 42 -18 53 -2 12 -12 21 -26 23 -12 2 -23 9 -24 15 0 7 -2 17 -3 22 -2 6 -3 15 -4 22 -2 21 -32 43 -59 42 -15 0 -45 -9 -67 -20z"/>
<path d="M717 3583 c-10 -9 -8 -33 2 -33 5 0 11 9 14 20 5 20 -3 26 -16 13z"/>
<path d="M5505 3510 c-4 -6 -2 -17 4 -24 7 -8 7 -23 1 -46 -13 -45 -8 -47 24 -10 27 32 33 50 17 50 -5 0 -11 9 -14 20 -6 22 -22 26 -32 10z"/>
<path d="M5325 3460 c-3 -11 -10 -20 -14 -20 -13 0 -5 -89 10 -107 12 -16 12 -17 -2 -6 -9 7 -19 10 -22 6 -12 -11 -55 44 -46 59 4 8 4 20 -1 28 -7 10 -10 11 -10 3 0 -7 -4 -13 -10 -13 -5 0 -10 9 -10 20 0 11 -7 20 -15 20 -20 0 -19 -12 6 -54 23 -39 18 -60 -12 -51 -14 5 -21 0 -27 -16 -6 -14 -11 -18 -16 -11 -4 6 -13 9 -20 6 -18 -7 -51 -82 -41 -92 4 -4 10 -1 12 5 3 7 13 23 24 35 l19 23 -6 -35 -5 -35 19 23 c24 26 52 29 52 5 0 -14 3 -13 20 5 27 29 60 30 55 1 -2 -12 -10 -27 -16 -35 -20 -24 -3 -26 40 -5 22 12 45 21 52 21 19 0 -8 -26 -41 -40 -17 -7 -30 -16 -30 -21 0 -13 57 -3 85 15 27 18 32 32 13 39 -7 3 -1 6 15 6 26 1 30 8 28 41 0 8 2 10 5 4 3 -7 14 -10 24 -7 12 3 22 -1 26 -11 8 -20 28 -21 45 0 18 22 69 47 99 48 22 1 33 21 13 21 -5 0 -16 5 -27 11 -15 9 -16 15 -8 31 20 36 -34 15 -68 -27 -35 -44 -66 -45 -55 -3 4 16 2 22 -5 18 -5 -3 -10 -14 -10 -24 0 -10 -6 -24 -14 -30 -22 -18 -31 7 -11 29 16 17 28 113 17 125 -7 7 -62 -56 -62 -71 0 -6 -7 -17 -15 -24 -15 -13 -17 -9 -30 73 -6 41 -20 48 -30 17z"/>
<path d="M5370 3451 c0 -12 5 -21 10 -21 6 0 10 6 10 14 0 8 -4 18 -10 21 -5 3 -10 -3 -10 -14z"/>
<path d="M5597 3283 c-3 -5 8 -9 24 -10 15 -1 31 2 34 7 4 6 -7 10 -24 10 -16 0 -32 -3 -34 -7z"/>
<path d="M5400 3194 c-60 -44 -120 -62 -136 -40 -15 21 -20 20 -29 -6 -5 -18 -8 -19 -12 -8 -12 30 -53 42 -53 14 0 -17 -40 -16 -52 1 -4 6 -8 -3 -8 -18 0 -23 3 -26 18 -19 9 5 22 8 27 7 6 -2 22 -6 38 -9 27 -6 27 -7 12 -36 -20 -38 -19 -40 10 -40 16 0 25 -6 25 -16 0 -14 3 -14 15 -4 12 10 13 15 4 21 -7 4 -9 14 -6 23 6 15 9 15 33 -1 23 -14 25 -22 21 -55 -5 -40 7 -50 31 -26 10 10 17 10 34 -1 19 -11 20 -11 14 4 -9 25 12 49 30 34 11 -9 14 -6 14 16 0 22 -4 26 -20 22 -11 -3 -22 -1 -25 3 -10 17 7 59 26 65 10 4 19 15 19 25 0 10 4 21 9 24 11 7 21 45 13 50 -4 2 -27 -12 -52 -30z"/>
<path d="M5516 3161 c-3 -5 1 -14 8 -20 11 -9 23 -9 50 3 20 8 36 17 36 20 0 10 -88 7 -94 -3z"/>
<path d="M5510 3115 c0 -3 9 -15 20 -27 14 -16 20 -18 20 -7 0 8 -9 20 -20 27 -11 7 -20 10 -20 7z"/>
<path d="M5480 3102 c0 -7 -7 -12 -15 -12 -9 0 -15 -9 -15 -23 0 -36 9 -38 38 -12 25 23 26 26 9 42 -10 11 -17 13 -17 5z"/>
<path d="M5487 3020 c8 -29 25 -37 21 -9 -1 12 -8 24 -15 26 -7 3 -9 -3 -6 -17z"/>
<path d="M3252 2649 c-17 -6 -22 -15 -20 -31 2 -13 8 -23 14 -23 6 0 19 -8 29 -18 18 -18 59 -17 79 3 13 13 -1 39 -26 50 -13 5 -18 9 -13 10 13 1 -17 20 -30 19 -5 0 -20 -4 -33 -10z"/>
<path d="M3230 2483 c-50 -5 -81 -23 -38 -23 14 0 31 -7 38 -15 7 -8 20 -15 30 -15 9 0 20 -3 24 -7 4 -4 19 -9 34 -11 15 -2 35 -10 44 -19 18 -16 38 -10 38 11 0 35 -26 64 -61 70 -21 3 -43 7 -51 9 -7 2 -33 2 -58 0z"/>
<path d="M3493 2453 c-24 -8 -43 -18 -43 -23 0 -4 28 -13 61 -19 79 -16 99 -29 99 -63 0 -44 32 -37 47 10 11 34 10 38 -9 53 -12 10 -28 15 -35 12 -22 -8 -59 5 -69 25 -8 18 -12 18 -51 5z"/>
<path d="M3730 2411 c0 -5 7 -16 15 -25 8 -8 15 -19 15 -25 0 -16 15 -13 30 4 10 12 10 15 -1 15 -8 0 -20 9 -27 20 -13 21 -32 27 -32 11z"/>
<path d="M3660 2326 c0 -9 7 -16 15 -16 8 0 15 -6 15 -14 0 -7 17 -32 38 -54 29 -32 46 -42 80 -46 51 -7 82 9 82 41 0 17 -6 23 -22 23 -21 0 -21 0 -2 14 17 13 18 15 2 21 -21 8 -38 -1 -38 -21 0 -18 -4 -18 -40 1 -17 9 -30 22 -30 29 0 7 -15 16 -32 19 -18 3 -41 8 -50 12 -13 5 -18 2 -18 -9z"/>
<path d="M3795 2329 c-4 -6 -5 -13 -2 -16 8 -7 47 7 47 18 0 13 -37 11 -45 -2z"/>
<path d="M3992 2061 c2 -11 12 -15 31 -13 15 2 27 -1 27 -8 0 -8 6 -8 20 0 11 6 20 18 20 27 0 15 -2 14 -19 -1 -15 -14 -19 -14 -24 -3 -8 21 -59 19 -55 -2z"/>
<path d="M2086 3031 c-10 -11 -25 -17 -33 -14 -13 5 -14 0 -8 -28 7 -33 7 -34 -12 -16 -22 19 -43 23 -43 7 0 -5 -7 -10 -15 -10 -18 0 -19 -12 -4 -27 16 -16 4 -44 -16 -37 -20 8 -21 -32 -1 -52 8 -7 16 -19 19 -26 2 -8 14 -1 31 19 15 18 33 30 40 27 14 -5 49 29 52 52 1 9 11 25 21 36 13 15 14 22 6 25 -8 3 -10 15 -6 34 6 34 -6 38 -31 10z"/>
<path d="M2164 2988 c-3 -12 -13 -28 -20 -36 -8 -7 -14 -22 -14 -33 0 -10 -6 -19 -14 -19 -7 0 -21 -12 -31 -26 -16 -24 -16 -27 1 -45 23 -25 44 -24 44 2 0 14 5 19 13 16 11 -4 14 6 12 40 -1 40 2 46 29 60 17 9 25 18 19 20 -7 3 -13 13 -13 24 0 26 -17 24 -26 -3z"/>
<path d="M960 1676 c0 -19 39 -31 53 -17 7 7 2 13 -17 21 -35 13 -36 13 -36 -4z"/>
</g>
<g id="layer108" fill="#9fc5da" stroke="none">
<path d="M0 2000 l0 -2000 5120 0 5120 0 0 2000 0 2000 -5120 0 -5120 0 0 -2000z m630 1878 c0 -16 5 -39 12 -51 6 -12 14 -38 17 -57 5 -26 12 -36 31 -40 18 -4 32 -21 50 -57 14 -28 36 -63 49 -77 22 -23 23 -28 11 -56 -26 -63 -94 -76 -153 -30 -14 11 -31 20 -37 20 -7 0 -10 8 -7 19 3 15 -8 31 -44 61 -81 68 -162 84 -226 44 -20 -13 -26 -12 -48 2 -17 11 -24 22 -20 35 3 10 0 27 -6 38 -21 33 2 47 88 54 114 10 149 22 177 64 29 42 73 74 92 66 8 -3 14 -18 14 -35z m792 -65 c36 -32 10 -86 -31 -63 -33 17 -27 73 8 79 3 1 13 -6 23 -16z m-551 -2 c-37 -10 -36 -29 1 -40 26 -7 28 -9 10 -10 -30 -1 -24 -23 9 -32 20 -6 18 -7 -12 -8 -39 -1 -49 12 -49 72 0 24 3 27 33 26 29 -1 29 -2 8 -8z m204 -35 c8 4 15 16 15 27 0 35 17 6 24 -40 6 -43 -7 -61 -17 -23 -7 27 -36 25 -46 -2 l-9 -23 -6 25 c-14 63 -9 93 10 58 9 -17 20 -25 29 -22z m125 34 c0 -5 -6 -10 -12 -11 -10 0 -10 -2 0 -6 6 -2 9 -9 6 -15 -4 -6 0 -14 7 -20 10 -6 7 -8 -10 -6 -17 2 -27 11 -32 30 -4 15 -4 29 -1 32 9 10 42 7 42 -4z m43 -2 c4 -10 8 -9 16 2 13 19 19 12 23 -25 3 -26 0 -30 -24 -33 -18 -2 -28 1 -28 10 0 7 -3 23 -6 36 -7 23 10 32 19 10z m91 1 c13 11 16 11 16 0 0 -8 3 -24 7 -37 5 -21 3 -23 -22 -20 -21 2 -31 10 -36 30 -8 29 0 46 12 26 6 -9 11 -9 23 1z m-185 -41 c1 -5 -3 -8 -9 -8 -5 0 -10 12 -9 28 0 24 1 25 9 7 5 -11 9 -23 9 -27z m4343 -79 c3 -23 11 -29 73 -54 22 -9 51 -23 65 -30 14 -7 48 -16 75 -20 63 -8 77 -16 80 -46 1 -13 3 -30 4 -37 0 -7 17 -20 37 -29 31 -15 35 -21 30 -45 -10 -49 5 -119 26 -127 18 -6 18 -8 4 -20 -18 -15 -22 -71 -6 -87 16 -16 -5 -62 -46 -100 -37 -33 -39 -42 -34 -121 2 -28 -2 -49 -12 -60 -17 -20 -14 -37 13 -64 41 -41 10 -79 -36 -45 -15 11 -17 17 -8 28 7 8 10 24 7 35 -9 32 -50 32 -123 0 -53 -24 -69 -27 -88 -18 -13 6 -51 11 -84 11 -51 0 -63 -4 -84 -26 -22 -24 -26 -24 -65 -14 -28 8 -45 8 -54 1 -17 -14 -59 -2 -46 13 10 12 7 47 -5 67 -4 6 -7 27 -7 47 0 41 -31 82 -83 109 -16 9 -37 26 -48 39 -10 13 -33 26 -51 30 -30 5 -35 11 -47 52 -22 84 -18 161 10 212 15 25 35 63 46 84 11 21 29 45 40 53 11 8 52 36 90 63 39 27 80 59 91 71 13 12 27 18 34 14 11 -7 66 5 115 25 11 5 34 9 52 9 25 1 32 -4 35 -20z m-2227 -540 c4 -6 19 -7 35 -4 16 4 31 2 35 -5 12 -19 76 -40 131 -42 30 -1 54 -5 54 -8 0 -3 51 -58 114 -123 62 -65 113 -124 112 -130 -3 -39 21 -117 55 -177 21 -38 39 -75 39 -82 0 -6 12 -24 26 -39 24 -25 25 -29 14 -69 -9 -33 -9 -49 1 -74 16 -36 57 -75 80 -76 18 0 149 -120 149 -136 0 -14 23 -28 120 -74 117 -56 113 -54 130 -83 13 -24 13 -28 -6 -54 -25 -32 -55 -35 -122 -9 -42 16 -120 16 -243 1 -30 -4 -38 -1 -42 15 -5 21 -44 40 -82 40 -29 0 -105 69 -105 95 0 21 -111 135 -131 135 -8 0 -20 9 -27 20 -9 15 -23 20 -55 20 -26 0 -61 10 -92 26 -45 23 -58 25 -126 20 -52 -3 -83 -1 -101 8 -13 7 -42 16 -64 21 -21 4 -43 10 -49 13 -18 12 -130 0 -158 -16 -26 -16 -30 -16 -76 11 -44 24 -73 34 -108 36 -23 2 -14 22 27 60 22 20 40 40 40 44 0 8 21 34 62 76 22 23 27 35 22 59 -8 37 10 92 39 124 12 13 31 43 42 68 11 24 46 69 77 101 38 37 58 65 58 80 0 16 8 28 23 34 15 7 23 20 25 45 2 19 8 41 14 47 13 16 54 17 63 2z m-1040 -58 c17 -9 48 -31 70 -49 60 -50 63 -52 73 -52 16 0 19 -43 8 -90 -11 -45 -25 -58 -116 -102 -14 -6 -35 -20 -47 -31 -12 -11 -43 -22 -70 -24 -26 -3 -56 -12 -66 -21 -15 -14 -22 -13 -71 3 -56 19 -55 19 -96 105 -4 9 -8 43 -9 77 -1 56 1 64 24 79 14 9 25 24 25 33 0 9 24 33 53 53 48 33 57 36 122 35 44 0 81 -6 100 -16z m5829 -83 c28 -29 75 -83 105 -120 29 -36 65 -71 80 -76 40 -14 148 -41 231 -58 144 -28 175 -37 205 -54 17 -10 47 -18 67 -17 40 1 82 -28 94 -67 4 -11 13 -26 21 -34 7 -8 11 -23 8 -33 -4 -11 4 -39 19 -66 13 -27 39 -78 56 -115 29 -63 30 -70 16 -90 -9 -13 -13 -31 -10 -45 4 -13 1 -37 -6 -54 -12 -28 -11 -32 12 -52 24 -21 45 -63 40 -81 -2 -4 2 -14 8 -21 28 -33 5 -351 -26 -370 -9 -5 -28 -23 -42 -38 -23 -25 -31 -27 -71 -22 -59 8 -185 54 -216 80 -23 18 -24 23 -14 56 10 31 8 41 -15 87 -14 28 -26 67 -26 85 0 20 -9 46 -21 61 -11 14 -40 66 -64 114 -32 67 -55 98 -93 130 -42 35 -51 49 -61 94 -6 29 -13 61 -16 72 -7 29 -33 64 -59 82 -24 15 -51 97 -39 117 3 5 2 34 -2 64 -8 64 -25 85 -140 173 -130 101 -261 148 -381 138 -50 -4 -55 -3 -51 14 3 10 1 21 -4 24 -20 12 -7 23 20 18 16 -3 55 2 87 11 86 26 164 43 203 44 28 1 42 -8 85 -51z m-6602 -92 c14 -20 8 -36 -11 -36 -15 0 -18 5 -14 21 5 17 2 20 -13 17 -25 -4 -31 -48 -9 -65 13 -9 23 -9 38 -2 15 9 18 8 15 -3 -7 -19 -53 -22 -72 -3 -25 25 -21 74 7 84 24 9 48 4 59 -13z m-184 2 c8 -8 15 -8 27 2 18 15 19 3 4 -37 -10 -27 -11 -28 -25 -8 -9 11 -19 26 -23 34 -5 8 -16 11 -30 6 -17 -5 -21 -14 -21 -48 0 -51 -15 -38 -25 21 l-7 42 44 0 c24 0 49 -5 56 -12z m269 -7 c9 -15 9 -23 -2 -37 -18 -25 -49 -8 -53 30 -3 21 1 26 20 26 13 0 29 -9 35 -19z m69 11 c14 -9 25 -52 14 -52 -5 0 -12 5 -15 10 -9 15 -25 12 -25 -6 0 -23 -17 -8 -22 21 -6 30 21 45 48 27z m54 -2 c-13 -9 -13 -11 0 -20 8 -5 11 -10 6 -10 -5 0 -3 -7 4 -15 10 -12 10 -15 -3 -15 -16 0 -27 20 -27 51 0 11 7 19 18 19 14 0 15 -2 2 -10z m170 -14 c0 -6 -5 -18 -10 -26 -8 -13 -11 -12 -24 5 -21 27 -20 30 9 31 14 1 25 -3 25 -10z m-77 -14 c10 -15 1 -32 -18 -32 -12 0 -25 21 -25 40 0 12 34 6 43 -8z m3354 -300 c20 -13 20 -46 0 -50 -15 -3 -18 0 -12 17 5 17 2 21 -15 21 -26 0 -35 -22 -20 -50 9 -18 17 -20 43 -14 28 6 30 5 18 -10 -20 -24 -47 -20 -70 10 -24 30 -27 54 -9 72 13 13 47 16 65 4z m363 -6 c10 -13 7 -15 -16 -13 -20 1 -29 -3 -32 -16 -6 -28 18 -49 47 -42 21 5 23 4 12 -9 -8 -9 -18 -16 -24 -16 -19 0 -57 43 -57 65 0 41 45 60 70 31z m-294 -5 c5 9 10 7 15 -7 12 -29 10 -41 -4 -47 -21 -8 -35 5 -43 38 -6 27 -5 28 8 17 13 -10 18 -10 24 -1z m84 -18 c0 -34 -18 -37 -34 -6 -13 27 -13 28 10 28 18 0 24 -5 24 -22z m55 17 c10 17 25 1 25 -28 0 -25 -1 -25 -15 -6 -13 17 -14 17 -15 2 0 -17 -20 -27 -20 -10 0 4 -3 18 -7 32 -6 22 -5 23 9 12 11 -9 18 -10 23 -2z m230 -38 c-6 -16 -8 -15 -21 2 -18 26 -18 34 4 38 19 4 27 -14 17 -40z m54 37 c12 18 31 5 31 -22 0 -15 -3 -18 -9 -9 -6 10 -10 10 -21 -3 -15 -19 -30 -4 -30 30 0 17 2 17 10 5 8 -13 11 -13 19 -1z m91 -16 c0 -34 -18 -37 -34 -6 -13 27 -13 28 10 28 18 0 24 -5 24 -22z m54 16 c9 8 16 10 16 5 0 -5 3 -19 6 -30 4 -16 0 -23 -14 -26 -26 -7 -42 9 -42 42 0 19 3 21 9 11 8 -12 12 -12 25 -2z m56 -26 c0 -32 -5 -28 -14 10 -4 19 -3 26 4 22 5 -3 10 -18 10 -32z m62 5 c-5 -35 -17 -36 -36 0 -13 26 -13 27 13 28 24 1 27 -2 23 -28z m-4936 -384 c8 -19 28 -54 44 -76 17 -23 30 -46 30 -52 0 -5 13 -24 29 -41 35 -35 53 -118 38 -175 -6 -19 -10 -54 -11 -77 0 -35 5 -47 37 -78 44 -42 45 -54 12 -93 -13 -16 -33 -53 -45 -83 -34 -94 -36 -95 -121 -83 -58 9 -84 8 -121 -3 -27 -8 -48 -18 -48 -23 0 -6 -9 -10 -20 -10 -11 0 -20 4 -20 9 0 5 -10 13 -22 17 -24 7 -42 20 -66 49 -9 10 -32 33 -50 50 -40 39 -41 68 -2 112 17 18 30 43 30 53 0 24 36 100 73 154 15 22 30 51 34 65 3 14 26 52 49 84 30 41 45 71 49 105 13 94 33 131 73 132 7 0 20 -16 28 -36z m6638 -56 c18 -25 21 -48 7 -48 -5 0 -11 9 -13 20 -4 25 -24 22 -21 -2 2 -10 -2 -18 -7 -18 -6 0 -10 13 -10 28 0 47 19 55 44 20z m61 12 c3 -5 1 -10 -6 -10 -8 0 -9 -3 0 -13 6 -8 8 -17 4 -21 -4 -4 -1 -12 7 -17 12 -8 9 -9 -10 -7 -17 2 -26 10 -28 26 -6 41 16 69 33 42z m-175 -20 c0 -13 7 -20 20 -20 11 0 20 -4 20 -10 0 -5 -7 -10 -15 -10 -8 0 -15 -4 -15 -10 0 -5 9 -10 19 -10 11 0 23 -4 26 -10 4 -6 -8 -10 -28 -10 -27 0 -36 5 -41 23 -9 35 -7 77 4 77 6 0 10 -9 10 -20z m370 10 c-13 -9 -13 -11 0 -20 10 -6 11 -10 3 -10 -19 0 -16 -18 5 -24 10 -3 6 -4 -8 -3 -20 2 -26 8 -28 35 -3 28 0 32 20 32 19 0 20 -2 8 -10z m72 -2 c3 -7 -4 -21 -14 -30 -19 -19 -21 -16 -12 20 7 24 19 29 26 10z m62 -15 c-1 -15 3 -31 9 -36 8 -5 5 -7 -8 -5 -25 4 -36 68 -12 68 10 0 13 -9 11 -27z m96 -3 c0 -13 -5 -17 -15 -14 -8 4 -15 1 -15 -5 0 -22 -18 -11 -22 14 -4 20 -3 23 8 14 11 -9 15 -7 20 5 8 20 24 11 24 -14z m-341 -8 c9 -18 8 -24 -4 -28 -23 -9 -42 2 -47 29 -4 21 -1 24 18 23 13 0 27 -11 33 -24z m51 10 c0 -10 5 -23 12 -30 9 -9 7 -12 -8 -12 -16 0 -21 7 -21 30 0 17 4 30 9 30 4 0 8 -8 8 -18z m485 8 c-3 -5 -1 -11 4 -15 11 -6 3 -35 -10 -35 -4 0 -6 7 -3 15 4 8 1 15 -5 15 -6 0 -11 -6 -12 -12 0 -7 -4 -4 -9 7 -13 29 -12 30 15 31 14 1 23 -2 20 -6z m75 -18 c0 -27 -17 -25 -36 4 -12 17 -11 19 11 19 20 0 25 -5 25 -23z m-5246 -7 c-4 -8 -1 -15 6 -15 6 0 8 -5 4 -11 -3 -6 0 -15 7 -20 11 -7 9 -9 -7 -9 -17 0 -23 7 -26 30 -5 30 -1 40 13 40 5 0 6 -7 3 -15z m140 0 c-4 -8 -1 -15 6 -15 6 0 8 -5 4 -11 -3 -6 0 -15 7 -21 11 -7 9 -8 -6 -6 -14 2 -21 12 -23 36 -2 17 1 32 7 32 6 0 8 -7 5 -15z m230 0 c-4 -8 -2 -15 4 -15 5 0 12 -9 15 -20 3 -12 0 -20 -8 -20 -14 0 -29 45 -20 60 9 15 15 12 9 -5z m-428 -31 c4 -19 13 -38 20 -41 8 -3 11 -9 8 -14 -7 -12 -51 -11 -59 1 -3 6 -1 10 5 10 8 0 11 14 8 40 -4 50 9 53 18 4z m163 3 c0 -12 -3 -16 -6 -9 -4 10 -9 9 -24 -4 -18 -16 -19 -16 -19 1 0 19 30 46 42 39 5 -3 8 -15 7 -27z m140 -14 c1 -7 -10 -13 -24 -13 -18 0 -25 5 -25 20 0 11 7 20 15 20 8 0 15 6 16 13 1 14 17 -22 18 -40z m4780 18 c-15 -5 -22 6 -14 19 6 9 10 9 16 -1 5 -8 4 -15 -2 -18z m-4705 -3 c-4 -6 0 -14 7 -20 11 -7 9 -8 -6 -6 -12 2 -21 12 -23 26 -3 16 0 20 12 16 9 -3 13 -11 10 -16z m-3211 -71 c30 0 32 -4 16 -44 l-10 -27 -21 32 c-14 23 -27 32 -42 30 -18 -3 -21 -9 -19 -45 2 -46 -13 -59 -22 -18 -3 14 -7 36 -10 49 -6 32 4 39 45 31 19 -4 47 -8 63 -8z m107 -12 c0 -8 6 -15 14 -15 25 0 58 -34 51 -53 -7 -18 -59 -24 -69 -9 -13 21 -18 92 -7 92 6 0 11 -7 11 -15z m112 6 c17 9 18 7 12 -18 -10 -40 -13 -41 -35 -14 -21 26 -27 53 -7 33 8 -8 17 -8 30 -1z m155 -19 c7 -31 -4 -40 -22 -16 -13 17 -14 17 -15 2 0 -25 -17 -22 -25 3 -5 13 -2 25 6 29 23 15 50 6 56 -18z m63 7 c0 -4 -3 -15 -6 -23 -6 -15 -8 -15 -20 1 -18 24 -17 29 6 29 11 0 20 -3 20 -7z m8420 -374 c0 -23 -2 -24 -20 -15 -21 11 -25 22 -13 33 15 16 33 6 33 -18z m330 10 c0 -9 -6 -12 -15 -9 -8 4 -12 10 -9 15 8 14 24 10 24 -6z m-194 -296 c17 -41 59 -61 141 -65 65 -3 122 -21 146 -45 10 -11 25 -20 35 -21 58 -5 69 -10 142 -56 71 -45 100 -79 100 -118 0 -18 9 -51 19 -75 20 -44 20 -44 -1 -78 l-22 -34 42 -37 c54 -49 67 -108 32 -145 -13 -14 -31 -25 -41 -25 -10 0 -21 -5 -24 -10 -4 -7 -16 -4 -34 6 -27 16 -81 117 -81 152 0 23 -25 59 -51 72 -15 9 -26 7 -48 -10 -34 -24 -70 -26 -97 -5 -12 9 -31 12 -51 9 -18 -4 -33 -2 -33 3 0 5 -20 24 -45 43 -34 25 -57 35 -92 37 -29 1 -52 8 -59 18 -6 8 -16 15 -23 15 -19 0 -98 78 -114 113 -10 21 -15 58 -14 106 l2 74 -47 42 c-38 34 -46 48 -44 70 l3 28 76 -2 c67 -2 78 0 89 18 12 20 13 20 46 -12 19 -17 40 -48 48 -68z m-6290 -82 c-35 -26 -17 -97 25 -97 36 0 51 60 22 92 -20 22 -11 24 11 2 22 -22 20 -67 -4 -89 -47 -43 -112 25 -76 79 9 14 22 26 28 26 7 0 4 -6 -6 -13z m288 -12 c-13 -20 -14 -31 -5 -57 10 -30 9 -31 -4 -14 -19 25 -19 46 1 74 21 30 28 28 8 -3z m289 -29 c-2 -44 1 -56 15 -59 12 -3 11 -5 -5 -6 -21 -1 -23 3 -23 59 0 33 4 60 8 60 4 0 7 -24 5 -54z m591 11 c16 24 32 40 37 37 5 -3 8 -29 8 -57 -1 -33 -4 -41 -6 -22 -7 48 -20 50 -47 6 -15 -22 -28 -41 -31 -41 -3 0 -4 28 -3 63 1 59 1 60 7 17 l6 -45 29 42z m260 18 c-13 -20 -14 -31 -5 -57 10 -30 9 -31 -4 -14 -19 25 -19 46 1 74 21 30 28 28 8 -3z m508 -33 c-3 -9 -10 -3 -18 18 -19 44 -17 50 5 21 10 -14 16 -31 13 -39z m57 19 c-8 -23 -14 -29 -19 -20 -5 7 -1 22 8 35 22 29 25 25 11 -15z m483 26 c-6 -7 -12 -33 -15 -57 -3 -42 -4 -41 -5 13 -2 47 1 57 14 57 12 0 14 -3 6 -13z m307 -52 c-20 -54 -23 -57 -35 -40 -8 10 -14 24 -14 29 0 6 4 5 9 -3 11 -17 33 -5 29 17 -2 16 23 65 29 58 2 -2 -6 -29 -18 -61z m300 8 c-2 -54 -2 -55 -8 -18 l-6 40 -29 -43 c-34 -50 -43 -43 -36 25 4 40 5 43 8 16 4 -42 12 -41 40 2 12 19 24 35 27 35 3 0 4 -26 4 -57z m488 -25 c-2 -18 -4 -6 -4 27 0 33 2 48 4 33 2 -15 2 -42 0 -60z m229 66 c-19 -19 -21 -65 -3 -84 10 -12 9 -12 -5 -1 -31 23 -19 101 15 101 5 0 1 -7 -7 -16z m290 0 c-19 -19 -21 -65 -3 -84 10 -12 9 -12 -5 -1 -31 23 -19 101 15 101 5 0 1 -7 -7 -16z m74 -34 c0 -36 -9 -60 -23 -60 -7 0 -7 4 1 12 16 16 15 70 0 88 -11 12 -10 12 5 1 9 -7 17 -26 17 -41z m-3301 -15 c0 -16 -1 -17 -8 -5 -5 8 -12 26 -16 40 -7 24 -7 24 9 5 8 -11 15 -29 15 -40z m47 14 c-12 -29 -14 -31 -15 -11 -1 13 5 29 12 36 18 21 20 12 3 -25z m604 -10 c0 -15 -7 -33 -17 -40 -15 -13 -15 -12 -4 10 8 13 10 37 7 55 -4 22 -3 27 4 16 5 -8 10 -27 10 -41z m722 -46 c8 -10 6 -13 -8 -13 -17 0 -18 6 -14 57 5 58 5 58 8 13 2 -24 8 -50 14 -57z m503 49 c-8 -8 -25 17 -25 38 0 9 6 6 16 -8 9 -13 13 -26 9 -30z m597 -19 c3 -36 1 -43 -15 -43 -14 0 -16 4 -7 19 5 11 11 37 11 58 1 43 6 28 11 -34z m-1365 -17 c-5 -16 -24 -18 -30 -4 -3 9 3 14 14 14 11 0 18 -5 16 -10z m-1627 -16 c-8 -6 -22 -10 -30 -10 -8 0 -4 6 10 13 27 15 44 12 20 -3z m548 9 c-2 -6 -8 -10 -13 -10 -5 0 -11 4 -13 10 -2 6 4 11 13 11 9 0 15 -5 13 -11z m4797 -309 c-3 -5 -13 -10 -21 -10 -13 0 -14 -8 -9 -40 8 -48 -10 -55 -20 -7 -4 17 -9 40 -11 50 -4 14 1 17 31 17 22 0 34 -4 30 -10z m60 0 c17 14 20 3 9 -37 -8 -30 -16 -29 -37 6 -21 36 -22 47 -2 31 12 -10 18 -10 30 0z m85 -4 c0 -8 3 -22 7 -31 5 -14 2 -16 -15 -10 -13 4 -22 2 -22 -4 0 -6 -4 -11 -10 -11 -5 0 -10 15 -10 33 0 23 3 28 10 17 8 -12 10 -12 16 3 8 21 24 23 24 3z m50 4 c-12 -8 -12 -11 3 -28 22 -24 21 -32 -2 -32 -14 0 -18 5 -14 20 3 12 -1 22 -11 26 -25 10 -19 24 12 24 20 0 23 -3 12 -10z m188 -10 c-14 -22 -24 -19 -15 5 4 8 11 15 17 15 6 0 6 -7 -2 -20z m157 12 c-5 -4 -10 -16 -10 -27 0 -11 5 -23 10 -27 6 -5 6 -8 -2 -8 -14 0 -18 6 -27 43 -6 23 -3 27 16 27 13 0 19 -4 13 -8z m-266 -17 c0 -5 -4 -18 -8 -29 -7 -17 -8 -16 -24 7 -21 33 -22 32 8 32 14 0 25 -4 24 -10z m56 5 c7 6 12 0 13 -21 2 -26 -1 -30 -20 -27 -17 2 -24 11 -26 33 -3 24 -1 28 9 18 8 -8 17 -9 24 -3z m155 -35 c10 -13 9 -15 -8 -15 -15 0 -20 5 -16 15 4 8 7 15 9 15 1 0 8 -7 15 -15z m450 -170 c0 -8 -4 -15 -10 -15 -5 0 -10 7 -10 15 0 8 5 15 10 15 6 0 10 -7 10 -15z m148 -15 c17 -11 32 -26 32 -34 0 -7 7 -19 15 -26 23 -19 18 -35 -16 -47 -41 -16 -47 -11 -60 42 -7 28 -18 47 -30 50 -20 7 -24 17 -12 28 12 12 37 7 71 -13z m-648 -122 c0 -21 -3 -28 -8 -20 -5 7 -16 10 -24 7 -10 -4 -17 1 -21 14 -6 25 0 31 30 31 19 0 23 -5 23 -32z m82 10 c-6 -6 -15 -8 -19 -4 -4 4 -1 11 7 16 19 12 27 3 12 -12z m138 13 c0 -5 -7 -12 -16 -15 -24 -9 -28 -7 -14 9 14 17 30 20 30 6z m-3132 -53 c3 -17 -56 -18 -1127 -18 -1153 0 -1158 0 -1124 33 3 4 511 6 1127 5 1058 -3 1121 -4 1124 -20z m3909 -38 c1 -18 -2 -28 -7 -25 -12 7 -14 55 -2 55 4 0 8 -14 9 -30z m-107 5 c0 -8 -4 -15 -9 -15 -13 0 -22 16 -14 24 11 11 23 6 23 -9z m170 0 c0 -8 -4 -15 -10 -15 -5 0 -10 7 -10 15 0 8 5 15 10 15 6 0 10 -7 10 -15z m-6152 -155 c2 -119 -4 -147 -32 -137 -13 5 -16 25 -16 125 0 65 3 122 7 126 4 4 14 5 23 4 12 -3 15 -24 18 -118z m166 101 c30 -33 17 -63 -36 -89 -27 -12 -48 -27 -48 -32 0 -14 46 -12 70 2 24 16 35 6 21 -20 -27 -51 -126 -29 -119 26 3 25 11 31 77 62 26 11 23 29 -5 36 -21 5 -31 2 -45 -14 -20 -25 -39 -29 -39 -7 0 48 90 74 124 36z m166 4 c0 -11 -11 -15 -40 -15 l-40 0 0 -76 c0 -66 -2 -75 -17 -72 -15 3 -19 16 -21 77 -2 41 -1 80 2 88 8 20 116 18 116 -2z m56 -10 c5 -21 12 -25 40 -25 27 0 37 5 46 25 10 23 38 35 38 18 0 -5 -14 -45 -32 -90 -42 -110 -56 -110 -97 -2 -17 44 -31 85 -31 90 0 20 30 7 36 -16z m264 5 c36 -36 19 -71 -42 -92 -20 -7 -38 -17 -40 -23 -4 -14 42 -19 55 -6 6 6 17 11 24 11 22 0 15 -29 -12 -46 -33 -22 -83 -10 -98 23 -15 34 -1 53 52 71 30 10 41 19 39 31 -5 25 -43 25 -67 0 -31 -33 -49 -11 -21 24 27 34 80 37 110 7z m331 10 c28 -15 54 -70 38 -80 -17 -11 -36 -2 -42 20 -6 22 -46 35 -80 26 -54 -13 -63 -135 -13 -168 24 -16 66 -7 90 18 24 27 46 26 46 -2 0 -30 -50 -64 -96 -64 -112 0 -163 156 -77 236 28 26 97 33 134 14z m111 -15 c9 -19 19 -25 45 -25 27 0 35 5 43 25 5 14 17 25 25 25 19 0 17 -8 -24 -108 -37 -90 -53 -89 -92 6 -16 40 -29 80 -29 88 0 23 19 16 32 -11z m178 -25 c0 -27 4 -50 9 -50 5 0 23 23 41 50 48 75 60 68 60 -40 0 -73 -3 -90 -15 -90 -12 0 -15 13 -15 58 l0 57 -38 -57 c-21 -34 -44 -58 -54 -58 -16 0 -18 11 -18 90 0 73 3 90 15 90 11 0 15 -12 15 -50z m172 25 c9 -19 19 -25 45 -25 27 0 35 5 43 25 5 14 16 25 25 25 20 0 20 2 -17 -92 -29 -72 -49 -100 -64 -85 -9 9 -64 149 -64 163 0 23 20 16 32 -11z m178 -9 c0 -59 35 -58 71 0 11 19 27 34 35 34 19 0 18 -9 -5 -47 -17 -27 -18 -33 -5 -43 17 -15 19 -61 2 -78 -7 -7 -38 -12 -70 -12 l-58 0 0 90 c0 73 3 90 15 90 10 0 15 -10 15 -34z m188 -59 c2 -70 0 -87 -12 -87 -19 0 -26 22 -26 90 0 66 7 93 24 87 7 -2 12 -37 14 -90z m68 68 c5 -21 12 -25 40 -25 27 0 37 5 46 25 12 26 39 35 37 13 -1 -31 -66 -163 -80 -166 -12 -2 -25 19 -48 75 -17 43 -31 84 -31 91 0 23 30 12 36 -13z m264 5 c36 -36 19 -71 -42 -92 -20 -7 -38 -17 -38 -23 -2 -16 30 -18 56 -4 28 15 43 5 28 -18 -28 -44 -115 -33 -122 15 -5 31 10 46 59 61 29 9 39 17 37 29 -5 25 -43 26 -66 2 -26 -28 -47 -18 -31 13 16 30 28 37 67 37 19 0 40 -8 52 -20z m2869 -28 c2 -25 -44 -9 -47 17 -3 18 0 22 12 18 9 -4 16 -1 17 6 1 14 17 -22 18 -41z m96 29 c0 -8 -6 -16 -13 -19 -8 -2 -10 2 -5 14 6 17 5 17 -17 1 -34 -24 -50 -21 -21 4 27 22 56 22 56 0z m75 -2 c0 -24 -23 -21 -28 4 -2 10 3 17 12 17 10 0 16 -9 16 -21z m100 1 c0 -13 -5 -18 -15 -14 -12 5 -13 10 -4 20 15 19 19 18 19 -6z m940 -51 c0 -18 -2 -19 -15 -9 -15 12 -12 30 6 30 5 0 9 -10 9 -21z m-178 -4 c11 -15 10 -27 -2 -20 -5 3 -10 0 -10 -7 -1 -13 -30 19 -30 33 0 10 34 6 42 -6z m-282 -50 c10 -12 10 -18 0 -30 -16 -19 -23 -19 -50 3 -13 11 -20 24 -16 30 10 17 51 15 66 -3z m-150 -141 c0 -17 -22 -14 -28 4 -2 7 3 12 12 12 9 0 16 -7 16 -16z"/>
<path d="M1387 3793 c-8 -7 11 -33 24 -33 5 0 9 9 9 20 0 19 -20 27 -33 13z"/>
<path d="M3254 2625 c-5 -11 2 -25 18 -41 19 -20 31 -24 52 -18 57 14 40 60 -27 71 -29 4 -38 2 -43 -12z"/>
<path d="M1492 2898 c2 -12 10 -23 18 -23 22 0 19 39 -3 43 -15 3 -18 -1 -15 -20z"/>
<path d="M300 1925 c0 -8 7 -15 15 -15 8 0 15 7 15 15 0 8 -7 15 -15 15 -8 0 -15 -7 -15 -15z"/>
<path d="M4337 270 c3 -11 9 -17 14 -14 14 8 10 34 -5 34 -9 0 -12 -7 -9 -20z"/>
<path d="M5044 274 c3 -9 6 -18 6 -20 0 -3 5 -2 10 1 16 10 12 35 -6 35 -11 0 -14 -5 -10 -16z"/>
<path d="M5394 274 c3 -9 6 -18 6 -20 0 -3 5 -2 10 1 16 10 12 35 -6 35 -11 0 -14 -5 -10 -16z"/>
<path d="M5540 250 c0 -18 5 -21 38 -18 25 2 37 8 37 18 0 10 -12 16 -37 18 -33 3 -38 0 -38 -18z"/>
<path d="M5826 275 c4 -8 10 -15 15 -15 5 0 9 7 9 15 0 8 -7 15 -15 15 -9 0 -12 -6 -9 -15z"/>
</g>
<g id="layer109" fill="#d8eff8" stroke="none">
<path d="M463 3974 c-74 -38 -156 -106 -182 -149 l-22 -37 96 6 c117 8 137 15 163 58 30 48 81 84 101 71 9 -6 17 -19 19 -29 6 -44 26 -130 34 -146 5 -10 17 -18 28 -18 13 0 26 -17 44 -53 14 -30 32 -60 41 -67 33 -27 36 -47 14 -85 -12 -19 -29 -40 -39 -45 -24 -13 -67 -13 -75 0 -4 6 -10 8 -14 5 -5 -2 -21 7 -35 20 -15 14 -31 25 -37 25 -5 0 -7 11 -3 24 4 19 0 27 -18 37 -12 6 -34 23 -47 35 -45 45 -150 56 -190 20 -21 -19 -29 -20 -64 -3 -19 9 -27 21 -30 47 l-4 35 -1 -39 c-2 -47 34 -115 79 -147 48 -34 221 -117 303 -144 132 -44 242 -29 309 42 15 16 31 43 36 60 l9 30 -50 -1 c-33 -1 -52 3 -55 12 -4 10 -9 10 -19 1 -8 -7 -18 -9 -21 -5 -11 10 20 61 37 62 8 1 34 2 58 2 37 2 42 5 41 25 0 12 -8 42 -18 66 -13 32 -19 39 -24 27 -6 -16 -35 -20 -73 -10 -15 4 -23 18 -31 57 -12 60 -10 67 22 67 13 0 27 5 30 10 3 6 -3 10 -15 10 -12 0 -19 4 -15 9 6 10 -62 93 -100 123 -19 15 -42 18 -127 18 -93 0 -109 -3 -155 -26z"/>
<path d="M5013 3978 c-38 -42 -70 -102 -126 -242 -32 -76 -88 -191 -126 -255 -119 -199 -135 -263 -87 -353 48 -91 172 -264 230 -321 101 -100 317 -188 476 -193 41 -2 98 -4 126 -5 28 -1 66 3 85 9 19 7 81 19 139 27 128 20 244 58 334 111 37 21 83 48 102 59 19 11 34 23 34 27 0 4 -36 5 -80 3 l-80 -4 0 35 c0 36 8 42 29 22 10 -11 15 -10 25 5 11 14 30 17 122 17 80 1 114 5 128 15 19 14 18 15 -15 16 -19 1 -59 2 -89 3 -30 1 -63 -2 -72 -8 -11 -7 -21 -6 -32 3 -17 14 -22 56 -8 65 4 3 75 6 158 8 147 3 149 3 152 -19 3 -19 8 -22 35 -16 130 24 232 1 315 -72 59 -53 90 -106 122 -215 46 -154 104 -230 219 -283 60 -28 75 -31 171 -31 99 0 112 2 239 47 162 57 207 60 269 19 63 -43 97 -95 163 -257 7 -16 12 -33 11 -37 -1 -4 10 -10 26 -14 47 -10 50 -12 55 -36 4 -20 4 -20 6 5 2 39 30 35 38 -5 l7 -33 6 30 c4 24 11 31 33 33 16 2 27 -1 27 -9 0 -9 3 -9 14 0 11 10 16 9 24 -5 8 -15 10 -15 15 0 5 13 11 14 33 6 15 -6 36 -8 47 -4 17 5 19 3 14 -17 -4 -13 -7 -30 -7 -36 0 -25 -28 -13 -40 17 -14 34 -30 32 -23 -3 6 -29 -14 -39 -57 -30 -20 4 -30 11 -30 24 0 10 -4 21 -10 24 -6 4 -10 -7 -10 -24 l0 -31 -77 0 c-43 0 -72 -4 -66 -8 7 -4 21 -33 32 -63 41 -121 76 -169 230 -316 198 -188 331 -353 436 -538 53 -93 146 -242 171 -273 1 -2 29 -3 62 -3 58 0 61 -1 76 -32 l17 -32 -3 29 c-4 40 20 46 28 7 8 -38 23 -41 21 -3 -2 24 2 27 27 27 27 0 29 -3 33 -43 l4 -43 -78 0 c-43 0 -88 1 -101 1 l-23 0 19 -25 c69 -87 73 -90 135 -88 63 2 77 -9 57 -46 -12 -24 -40 -28 -40 -7 0 8 -4 18 -10 21 -20 12 -9 -24 15 -53 22 -26 35 -31 90 -37 63 -7 65 -8 65 -35 0 -20 -6 -29 -21 -33 l-22 -6 20 -27 c21 -29 22 -29 218 -37 36 -2 40 -5 43 -29 3 -27 2 -28 -50 -28 -29 0 -70 -5 -90 -10 l-37 -11 52 -85 c29 -47 83 -116 120 -155 l69 -69 334 0 335 0 -4 518 c-2 300 -9 596 -17 705 -12 159 -12 211 0 335 10 111 15 427 17 1295 l4 1147 -775 0 -776 0 0 -112 c0 -62 7 -162 15 -223 39 -287 -70 -384 -417 -372 -172 5 -256 26 -408 98 -223 107 -258 121 -338 140 -116 27 -205 39 -306 39 -171 0 -262 -30 -428 -143 -119 -80 -152 -92 -208 -77 -53 14 -108 65 -181 165 -32 44 -82 109 -111 144 -54 65 -185 171 -212 171 -8 0 -17 4 -20 9 -7 11 -136 45 -231 61 -80 14 -221 55 -280 81 -35 16 -70 19 -286 19 -242 0 -246 0 -266 -22z m485 -290 c13 -23 34 -39 68 -51 27 -11 58 -23 69 -28 11 -5 44 -14 74 -19 66 -12 81 -24 81 -62 0 -22 8 -33 34 -49 34 -20 52 -54 35 -65 -11 -6 -1 -83 13 -101 5 -6 16 -9 24 -6 20 7 18 -3 -8 -38 -20 -26 -21 -33 -9 -64 10 -29 9 -39 -5 -67 -9 -18 -30 -44 -46 -57 -29 -24 -30 -26 -24 -84 5 -49 3 -64 -11 -79 -15 -17 -15 -20 5 -47 33 -45 38 -78 13 -86 -11 -3 -29 0 -41 7 -16 10 -19 19 -14 41 12 57 -30 72 -105 35 -25 -12 -59 -21 -75 -21 -174 5 -168 6 -193 -20 -23 -22 -29 -23 -65 -14 -26 6 -43 6 -49 0 -6 -6 -20 -8 -33 -6 -20 4 -23 11 -23 46 1 52 -8 131 -16 144 -3 5 -25 23 -49 38 -24 16 -56 41 -73 56 -16 15 -43 29 -60 31 -26 3 -31 8 -38 43 -5 22 -11 72 -14 110 -4 68 -3 72 41 149 44 77 82 126 97 126 11 0 141 100 155 118 7 9 19 13 33 9 12 -3 37 0 54 7 18 8 37 12 43 9 6 -2 17 3 24 12 23 27 66 19 88 -17z m2558 -680 c34 -35 82 -90 109 -123 50 -63 86 -85 139 -85 18 0 36 -4 42 -9 9 -9 127 -36 229 -53 33 -5 75 -18 93 -29 18 -10 48 -19 67 -19 36 0 105 -49 105 -75 0 -7 7 -18 15 -25 8 -7 15 -26 15 -42 0 -16 9 -46 20 -66 36 -68 80 -170 80 -185 0 -9 -4 -19 -10 -22 -5 -3 -10 -24 -10 -46 0 -22 -4 -49 -10 -59 -8 -15 -5 -22 13 -37 44 -35 64 -114 59 -243 -6 -201 -13 -237 -48 -251 -13 -4 -24 -13 -24 -18 0 -17 -55 -41 -71 -30 -8 5 -26 9 -41 9 -48 0 -196 63 -205 87 -3 8 0 26 6 41 10 25 8 37 -18 92 -18 37 -28 73 -25 85 3 12 -3 31 -14 45 -11 14 -42 70 -70 125 -38 76 -60 107 -91 130 -44 33 -65 74 -76 149 -6 38 -16 56 -51 92 -28 28 -45 54 -46 72 -1 15 -3 38 -4 52 -1 14 -2 44 -3 67 -1 29 -9 51 -28 73 -41 49 -201 164 -268 193 -63 27 -159 48 -191 42 -82 -16 -84 -16 -84 13 0 16 -6 34 -12 41 -11 11 -7 13 19 8 17 -4 56 1 85 9 48 14 208 50 233 53 6 0 38 -27 71 -61z m-1997 6 c24 -5 31 -12 31 -30 0 -20 -5 -23 -41 -22 -42 0 -56 14 -45 43 6 17 11 18 55 9z m-78 -26 c10 -18 9 -20 -6 -15 -9 4 -21 7 -26 7 -5 0 -9 7 -9 15 0 22 28 18 41 -7z m-43 -24 c7 4 12 2 12 -3 0 -6 -6 -11 -13 -11 -15 0 -37 20 -37 34 0 5 6 2 13 -9 8 -10 19 -15 25 -11z m70 -85 c-2 -18 -9 -23 -34 -23 -38 0 -54 10 -54 34 0 14 9 20 38 22 45 4 55 -3 50 -33z m-105 24 c-7 -2 -13 -16 -13 -29 0 -14 -4 -23 -9 -20 -15 9 0 56 18 55 10 0 11 -2 4 -6z m3379 -656 c10 -11 17 -11 41 1 25 13 31 13 44 -1 22 -22 9 -47 -24 -48 -49 -3 -98 3 -110 12 -7 6 -13 6 -17 1 -3 -5 -20 -9 -38 -7 -25 2 -34 8 -36 24 -4 23 16 29 36 9 9 -9 12 -9 12 1 0 8 7 11 20 8 11 -3 23 -1 26 4 8 13 31 11 46 -4z m-162 -32 c0 -18 -5 -25 -20 -25 -25 0 -27 37 -2 43 9 3 18 5 20 6 1 0 2 -10 2 -24z m58 -74 c6 -1 12 -8 12 -16 0 -21 17 -19 23 4 3 13 13 18 33 17 24 -1 29 -5 29 -26 0 -23 -3 -25 -40 -22 -22 1 -53 3 -70 4 -16 0 -38 7 -47 15 -9 8 -21 12 -27 8 -6 -3 -9 0 -5 8 4 12 21 14 92 8z m250 -14 c5 -27 -6 -50 -20 -40 -17 10 -40 10 -54 1 -18 -13 -57 24 -48 45 10 26 117 21 122 -6z m-42 -530 c-1 -18 -7 -22 -34 -22 -32 0 -52 17 -52 44 0 12 61 19 76 9 6 -5 11 -18 10 -31z m247 34 c4 -1 7 -14 7 -30 l0 -28 -81 1 c-64 1 -83 5 -93 19 -18 23 -28 22 -24 -5 5 -33 -19 -33 -27 1 -3 17 -4 34 -1 39 3 6 172 8 219 3z m-589 -23 c7 -30 -8 -45 -29 -28 -18 15 -20 36 -2 43 21 9 25 8 31 -15z m205 16 c34 -7 36 -11 21 -34 -9 -13 -12 -12 -25 4 -15 19 -15 19 -29 1 -8 -12 -20 -16 -35 -12 -11 3 -21 1 -21 -4 0 -5 -4 -9 -10 -9 -5 0 -10 12 -10 26 0 14 4 23 9 19 5 -3 12 -1 16 5 7 11 38 13 84 4z m-105 -261 c20 -25 36 -53 36 -60 0 -23 80 -53 143 -53 31 0 67 -5 80 -12 39 -20 44 -23 70 -41 14 -10 43 -20 66 -22 62 -6 218 -125 206 -157 -3 -8 4 -43 15 -77 20 -57 21 -64 6 -86 -23 -36 -20 -46 23 -85 52 -46 64 -97 29 -130 -12 -12 -38 -29 -56 -36 -28 -13 -35 -12 -57 2 -27 18 -75 110 -75 146 0 27 -43 78 -66 78 -9 0 -27 -9 -41 -20 -32 -25 -50 -25 -89 -1 -21 13 -36 16 -47 10 -12 -7 -26 -1 -54 24 -49 44 -68 53 -125 61 -25 4 -52 14 -58 21 -7 8 -18 15 -24 15 -17 0 -83 60 -107 96 -15 23 -19 47 -19 111 0 80 -1 83 -34 115 -18 18 -40 38 -49 43 -10 7 -14 20 -10 40 l5 30 80 0 c66 0 83 3 92 18 6 9 14 17 17 17 4 0 23 -21 43 -47z m479 -95 c3 -10 7 -10 18 -1 11 9 14 7 14 -12 0 -15 -4 -20 -11 -14 -6 5 -15 4 -22 -3 -16 -16 -37 4 -29 26 8 19 24 21 30 4z m142 -14 c0 -11 -7 -19 -17 -19 -9 0 -20 -3 -24 -7 -10 -10 -24 0 -24 18 0 8 4 13 9 10 5 -3 14 1 21 9 17 20 35 14 35 -11z m-255 -3 c0 -18 -18 -21 -30 -6 -10 13 -9 15 9 15 11 0 21 -4 21 -9z m-100 -612 c107 -3 111 -4 103 -25 -3 -9 -12 -12 -24 -9 -11 4 -19 2 -19 -2 0 -5 -39 -10 -87 -11 -113 -3 -128 -5 -147 -21 -21 -18 -55 -4 -62 25 -12 47 -1 54 73 50 37 -3 111 -6 163 -7z m243 -28 c14 -6 28 -19 32 -31 4 -11 16 -29 27 -40 24 -22 19 -33 -23 -54 -40 -20 -46 -15 -60 40 -7 25 -20 49 -30 55 -11 5 -19 16 -19 24 0 17 36 20 73 6z m-248 -92 c56 0 115 -9 115 -17 -1 -21 -22 -34 -64 -36 -37 -3 -50 0 -59 14 -10 18 -11 17 -21 -2 -27 -52 -78 -47 -84 7 -4 33 13 47 48 40 14 -3 43 -6 65 -6z m205 -64 c0 -8 -4 -15 -10 -15 -5 0 -10 7 -10 15 0 8 5 15 10 15 6 0 10 -7 10 -15z m330 -21 c0 -1 -3 -10 -6 -19 -5 -13 -8 -14 -15 -3 -7 10 -9 9 -9 -3 0 -26 -64 -20 -68 7 -3 18 3 20 48 21 27 0 50 -1 50 -3z m78 -11 c0 -10 3 -26 7 -35 5 -13 3 -18 -9 -18 -19 0 -40 36 -32 56 8 20 35 17 34 -3z m52 -9 c0 -31 -23 -28 -28 4 -2 15 2 22 12 22 11 0 16 -9 16 -26z m80 2 c0 -21 -5 -25 -30 -24 -24 1 -30 5 -29 22 0 12 3 15 6 9 7 -18 23 -16 23 2 0 8 7 15 15 15 9 0 15 -9 15 -24z m0 -103 c0 -27 -37 -33 -47 -7 -4 12 -8 13 -14 3 -9 -15 -96 -22 -105 -8 -15 25 6 34 85 35 78 0 81 0 81 -23z m-176 -6 c7 -26 -5 -40 -30 -35 -12 2 -20 13 -22 28 -2 20 2 25 22 26 17 1 26 -5 30 -19z m-295 -48 c18 -17 20 -24 10 -35 -27 -32 -91 1 -76 40 9 22 39 20 66 -5z m-174 -109 c5 -8 11 -8 19 -1 8 7 60 9 142 5 210 -9 209 -9 206 -30 -2 -11 -6 -21 -8 -23 -2 -2 -76 -5 -164 -5 -121 -1 -160 -4 -160 -13 0 -7 -7 -13 -15 -13 -15 0 -45 49 -45 75 0 17 16 20 25 5z"/>
<path d="M3285 3337 c-51 -17 -150 -68 -218 -111 -66 -42 -127 -73 -152 -78 -12 -2 -24 -16 -30 -33 -12 -34 -50 -46 -124 -39 -25 3 -82 6 -127 8 -44 1 -86 6 -92 10 -7 4 -12 1 -12 -9 0 -11 -7 -15 -22 -13 -19 2 -23 9 -23 38 l0 35 75 2 c219 4 209 3 173 18 -37 17 -122 25 -129 13 -8 -12 -48 -10 -62 4 -7 7 -12 23 -13 38 l-1 25 -7 -25 c-5 -18 -16 -26 -41 -31 -19 -4 -36 -6 -38 -5 -1 2 -3 19 -4 39 -1 34 -4 37 -37 44 -20 3 -81 7 -136 7 -119 1 -203 -22 -338 -91 -112 -58 -191 -116 -244 -180 l-43 -50 43 -8 c23 -5 57 -7 75 -6 18 1 32 -2 32 -8 0 -6 7 -11 15 -11 8 0 15 5 15 12 0 7 3 8 9 2 13 -13 1 -74 -14 -74 -7 0 -22 12 -32 26 l-19 26 1 -29 0 -28 -77 -3 -77 -3 -7 -36 c-11 -59 3 -170 29 -227 32 -69 86 -120 172 -161 128 -61 371 -114 524 -115 124 0 187 -18 341 -96 166 -83 299 -132 310 -114 13 22 45 6 51 -25 l7 -30 1 32 1 32 120 0 c77 0 120 -4 120 -11 0 -7 4 -7 13 0 16 13 90 9 95 -6 5 -17 29 -15 36 4 9 23 60 15 63 -11 10 -75 14 -69 -57 -76 l-65 -6 57 -1 c31 -1 58 -5 60 -10 2 -4 37 -19 78 -34 41 -15 130 -50 198 -77 296 -122 555 -154 689 -85 133 68 158 210 71 392 l-31 64 -50 -6 c-53 -6 -77 4 -77 33 0 28 18 45 47 47 17 0 28 6 28 15 0 18 -94 28 -148 15 -21 -5 -40 -6 -42 -4 -3 3 -2 19 1 37 5 21 11 30 20 27 7 -3 16 -1 19 4 3 6 18 9 33 9 44 -3 62 0 62 11 0 5 -14 40 -31 77 -17 38 -40 90 -50 116 -61 155 -127 246 -256 354 -208 173 -384 287 -519 333 -76 27 -186 34 -239 17z m-870 -111 c0 -25 -5 -31 -33 -38 -38 -10 -72 4 -72 30 0 28 17 38 63 38 40 -1 42 -3 42 -30z m883 -71 c18 -2 41 -9 50 -17 30 -26 79 -40 129 -37 26 2 48 -1 48 -6 0 -6 25 -35 55 -66 153 -154 168 -174 175 -233 3 -36 18 -77 44 -124 21 -38 41 -81 45 -96 3 -14 16 -30 27 -36 18 -10 20 -18 14 -73 -7 -76 5 -103 61 -131 44 -23 167 -131 176 -156 5 -14 118 -75 200 -108 15 -6 34 -25 43 -42 15 -29 15 -33 0 -56 -27 -41 -59 -47 -113 -22 -26 12 -63 21 -82 21 -47 -2 -180 -11 -205 -15 -14 -2 -21 3 -23 18 -3 20 -48 44 -88 44 -28 1 -81 50 -98 91 -8 19 -33 51 -55 69 -23 19 -41 41 -41 48 0 6 -8 12 -19 12 -10 0 -25 9 -32 21 -10 14 -31 23 -69 28 -30 5 -75 18 -100 29 -38 17 -55 19 -110 13 -36 -4 -72 -5 -80 -1 -108 53 -247 64 -291 24 -18 -16 -22 -16 -80 14 -34 18 -72 32 -84 32 -12 0 -29 7 -36 16 -11 14 -10 18 6 30 10 8 22 14 25 14 4 0 24 25 46 56 21 31 51 67 66 81 22 21 25 29 17 45 -14 25 5 82 42 130 16 20 29 42 29 48 0 20 58 97 100 133 31 26 40 41 40 65 0 25 5 33 24 38 24 6 36 29 36 70 0 30 21 46 50 39 14 -4 40 -8 58 -10z m-863 -18 c18 -2 21 -8 17 -37 -2 -12 -79 -13 -86 -1 -3 5 -15 7 -27 4 -16 -5 -18 -8 -7 -15 10 -7 8 -8 -6 -6 -12 2 -20 12 -21 28 -4 42 -8 41 130 27z m-228 -33 c11 -2 45 -23 75 -47 29 -23 65 -50 81 -60 22 -14 27 -25 27 -56 0 -41 -27 -101 -46 -101 -6 0 -28 -11 -48 -25 -20 -14 -42 -25 -48 -25 -6 0 -21 -11 -34 -25 -18 -19 -33 -25 -67 -25 -29 0 -49 -6 -58 -16 -15 -18 -69 -15 -114 7 -43 22 -74 89 -81 176 -3 47 -1 55 26 82 17 16 30 34 30 40 0 6 19 23 43 37 23 15 44 30 47 34 11 17 95 19 167 4z m1998 -709 c0 -13 -7 -20 -20 -20 -11 -1 -25 -4 -30 -7 -6 -4 -17 -2 -25 3 -13 8 -13 10 0 19 11 7 11 10 2 10 -7 0 -11 4 -7 10 3 5 22 8 43 7 30 -2 37 -6 37 -22z m135 -106 c0 -28 -3 -31 -25 -27 -14 3 -28 1 -31 -4 -3 -4 -11 -5 -17 -1 -7 4 -27 8 -45 8 -30 1 -51 17 -52 38 0 4 16 7 36 7 19 0 33 -4 29 -9 -3 -5 -1 -12 5 -16 5 -3 10 0 10 9 0 18 15 24 58 25 29 1 32 -2 32 -30z m-180 12 c0 -5 -7 -16 -15 -24 -8 -8 -13 -16 -12 -18 1 -3 -2 -1 -7 3 -5 4 -4 13 3 22 9 11 9 15 -1 19 -7 3 -3 6 10 6 12 1 22 -3 22 -8z"/>
<path d="M3255 2629 c-12 -18 36 -60 65 -57 30 4 39 33 13 46 -33 17 -72 22 -78 11z"/>
<path d="M6145 2990 c-8 -13 9 -20 24 -11 10 6 9 10 -3 14 -8 3 -18 2 -21 -3z"/>
<path d="M952 2399 c-145 -27 -301 -158 -406 -340 l-26 -46 41 -11 c23 -6 48 -8 55 -5 19 7 19 -46 1 -72 -13 -17 -15 -17 -30 6 -16 22 -17 23 -17 3 0 -18 -6 -21 -40 -21 -22 0 -43 -2 -45 -5 -3 -2 -10 -47 -17 -100 -20 -162 12 -330 82 -427 57 -79 165 -136 279 -148 113 -11 283 40 376 114 77 61 170 232 180 330 4 38 3 43 -5 25 -9 -21 -14 -22 -62 -16 -29 3 -63 5 -75 5 -12 0 -26 7 -31 16 -9 15 -11 15 -26 1 -12 -12 -13 -18 -3 -21 7 -3 5 -6 -5 -6 -25 -1 -34 20 -14 35 13 9 14 13 4 16 -7 3 8 8 34 12 27 4 52 5 57 2 5 -3 31 -2 57 3 39 7 52 6 65 -5 15 -13 17 -13 23 1 8 23 9 22 -24 29 -26 5 -30 10 -30 39 0 40 8 51 27 35 11 -9 17 -8 29 3 13 13 13 24 -1 89 -18 86 -57 172 -125 273 -100 150 -204 209 -328 186z m-22 -224 c11 -25 31 -61 45 -79 14 -18 25 -37 25 -43 0 -5 11 -20 25 -33 41 -39 63 -137 44 -202 -19 -67 -14 -95 25 -139 44 -48 45 -65 6 -114 -17 -21 -30 -44 -30 -51 0 -26 -44 -104 -62 -110 -10 -3 -43 0 -74 6 -66 14 -124 6 -159 -22 -25 -20 -55 -19 -55 2 0 5 -7 10 -15 10 -8 0 -43 27 -77 60 -33 33 -65 60 -70 60 -4 0 -8 16 -8 36 0 26 7 41 28 59 18 15 32 41 41 74 7 29 28 73 45 99 44 63 68 111 62 121 -3 4 6 19 19 31 40 37 75 105 75 144 0 44 15 84 42 114 31 32 46 27 68 -23z m398 -354 c-2 -18 -9 -26 -23 -26 -11 -1 -25 -4 -31 -8 -15 -9 -26 20 -19 44 6 18 39 29 63 21 8 -3 12 -16 10 -31z m-103 4 c0 -13 -7 -20 -20 -20 -11 -1 -25 -4 -31 -8 -15 -9 -38 18 -31 36 3 9 20 14 44 13 31 -1 38 -5 38 -21z"/>
</g>


</svg>